solid OpenSCAD_Model
  facet normal 0.947654 0.319298 0
    outer loop
      vertex 8.78958 1.93473 2.5
      vertex 8.16818 3.779 -2.5
      vertex 8.16818 3.779 2.5
    endloop
  endfacet
  facet normal 0.947654 0.319298 0
    outer loop
      vertex 8.16818 3.779 -2.5
      vertex 8.78958 1.93473 2.5
      vertex 8.78958 1.93473 -2.5
    endloop
  endfacet
  facet normal 0.994138 0.108122 0
    outer loop
      vertex 9 0 2.5
      vertex 8.78958 1.93473 -2.5
      vertex 8.78958 1.93473 2.5
    endloop
  endfacet
  facet normal 0.994138 0.108122 0
    outer loop
      vertex 8.78958 1.93473 -2.5
      vertex 9 0 2.5
      vertex 9 0 -2.5
    endloop
  endfacet
  facet normal 0.947654 -0.319298 0
    outer loop
      vertex 8.16818 -3.779 2.5
      vertex 8.78958 -1.93473 -2.5
      vertex 8.78958 -1.93473 2.5
    endloop
  endfacet
  facet normal 0.947654 -0.319298 0
    outer loop
      vertex 8.78958 -1.93473 -2.5
      vertex 8.16818 -3.779 2.5
      vertex 8.16818 -3.779 -2.5
    endloop
  endfacet
  facet normal 0.370136 0.928978 -0
    outer loop
      vertex 4.21568 7.95161 -2.5
      vertex 2.40775 8.67195 2.5
      vertex 4.21568 7.95161 2.5
    endloop
  endfacet
  facet normal 0.370136 0.928978 0
    outer loop
      vertex 2.40775 8.67195 2.5
      vertex 4.21568 7.95161 -2.5
      vertex 2.40775 8.67195 -2.5
    endloop
  endfacet
  facet normal -0.976621 0.214969 0
    outer loop
      vertex -8.94724 0.973071 -2.5
      vertex -8.52888 2.87371 2.5
      vertex -8.52888 2.87371 -2.5
    endloop
  endfacet
  facet normal -0.976621 0.214969 0
    outer loop
      vertex -8.52888 2.87371 2.5
      vertex -8.94724 0.973071 -2.5
      vertex -8.94724 0.973071 2.5
    endloop
  endfacet
  facet normal 0.725996 0.687699 0
    outer loop
      vertex 7.16484 5.44657 2.5
      vertex 5.82648 6.85946 -2.5
      vertex 5.82648 6.85946 2.5
    endloop
  endfacet
  facet normal 0.725996 0.687699 0
    outer loop
      vertex 5.82648 6.85946 -2.5
      vertex 7.16484 5.44657 2.5
      vertex 7.16484 5.44657 -2.5
    endloop
  endfacet
  facet normal 0.161782 0.986827 -0
    outer loop
      vertex 2.40775 8.67195 -2.5
      vertex 0.487249 8.9868 2.5
      vertex 2.40775 8.67195 2.5
    endloop
  endfacet
  facet normal 0.161782 0.986827 0
    outer loop
      vertex 0.487249 8.9868 2.5
      vertex 2.40775 8.67195 -2.5
      vertex 0.487249 8.9868 -2.5
    endloop
  endfacet
  facet normal -0.647386 -0.762162 0
    outer loop
      vertex -6.53396 -6.18929 -2.5
      vertex -5.05068 -7.4492 2.5
      vertex -6.53396 -6.18929 2.5
    endloop
  endfacet
  facet normal -0.647386 -0.762162 -0
    outer loop
      vertex -5.05068 -7.4492 2.5
      vertex -6.53396 -6.18929 -2.5
      vertex -5.05068 -7.4492 -2.5
    endloop
  endfacet
  facet normal -0.0541378 -0.998533 0
    outer loop
      vertex -1.45604 -8.88144 -2.5
      vertex 0.487249 -8.9868 2.5
      vertex -1.45604 -8.88144 2.5
    endloop
  endfacet
  facet normal -0.0541378 -0.998533 -0
    outer loop
      vertex 0.487249 -8.9868 2.5
      vertex -1.45604 -8.88144 -2.5
      vertex 0.487249 -8.9868 -2.5
    endloop
  endfacet
  facet normal 0.856858 -0.515553 0
    outer loop
      vertex 7.16484 -5.44657 2.5
      vertex 8.16818 -3.779 -2.5
      vertex 8.16818 -3.779 2.5
    endloop
  endfacet
  facet normal 0.856858 -0.515553 0
    outer loop
      vertex 8.16818 -3.779 -2.5
      vertex 7.16484 -5.44657 2.5
      vertex 7.16484 -5.44657 -2.5
    endloop
  endfacet
  facet normal -0.976621 -0.214969 0
    outer loop
      vertex -8.52888 -2.87371 -2.5
      vertex -8.94724 -0.973071 2.5
      vertex -8.94724 -0.973071 -2.5
    endloop
  endfacet
  facet normal -0.976621 -0.214969 0
    outer loop
      vertex -8.94724 -0.973071 2.5
      vertex -8.52888 -2.87371 -2.5
      vertex -8.52888 -2.87371 2.5
    endloop
  endfacet
  facet normal -0.647386 0.762162 0
    outer loop
      vertex -5.05068 7.4492 -2.5
      vertex -6.53396 6.18929 2.5
      vertex -5.05068 7.4492 2.5
    endloop
  endfacet
  facet normal -0.647386 0.762162 0
    outer loop
      vertex -6.53396 6.18929 2.5
      vertex -5.05068 7.4492 -2.5
      vertex -6.53396 6.18929 -2.5
    endloop
  endfacet
  facet normal 0.561187 -0.827689 0
    outer loop
      vertex 4.21568 -7.95161 -2.5
      vertex 5.82648 -6.85946 2.5
      vertex 4.21568 -7.95161 2.5
    endloop
  endfacet
  facet normal 0.561187 -0.827689 0
    outer loop
      vertex 5.82648 -6.85946 2.5
      vertex 4.21568 -7.95161 -2.5
      vertex 5.82648 -6.85946 -2.5
    endloop
  endfacet
  facet normal -0.907574 -0.419892 0
    outer loop
      vertex -7.71171 -4.63998 -2.5
      vertex -8.52888 -2.87371 2.5
      vertex -8.52888 -2.87371 -2.5
    endloop
  endfacet
  facet normal -0.907574 -0.419892 0
    outer loop
      vertex -8.52888 -2.87371 2.5
      vertex -7.71171 -4.63998 -2.5
      vertex -7.71171 -4.63998 2.5
    endloop
  endfacet
  facet normal 0 0 1
    outer loop
      vertex 7.7 0 2.5
      vertex 9 0 2.5
      vertex 8.78958 1.93473 2.5
    endloop
  endfacet
  facet normal 0 0 1
    outer loop
      vertex 7.45809 1.91491 2.5
      vertex 8.78958 1.93473 2.5
      vertex 8.16818 3.779 2.5
    endloop
  endfacet
  facet normal 0 0 1
    outer loop
      vertex 9 0 2.5
      vertex 7.7 0 2.5
      vertex 8.78958 -1.93473 2.5
    endloop
  endfacet
  facet normal -0 0 1
    outer loop
      vertex 7.45809 -1.91491 2.5
      vertex 8.78958 -1.93473 2.5
      vertex 7.7 0 2.5
    endloop
  endfacet
  facet normal 0 0 1
    outer loop
      vertex 8.78958 1.93473 2.5
      vertex 7.45809 1.91491 2.5
      vertex 7.7 0 2.5
    endloop
  endfacet
  facet normal 0 0 1
    outer loop
      vertex 6.74756 3.7095 2.5
      vertex 8.16818 3.779 2.5
      vertex 7.16484 5.44657 2.5
    endloop
  endfacet
  facet normal 0 0 1
    outer loop
      vertex 8.16818 3.779 2.5
      vertex 6.74756 3.7095 2.5
      vertex 7.45809 1.91491 2.5
    endloop
  endfacet
  facet normal 0 0 1
    outer loop
      vertex 5.61306 5.27101 2.5
      vertex 7.16484 5.44657 2.5
      vertex 5.82648 6.85946 2.5
    endloop
  endfacet
  facet normal 0 0 1
    outer loop
      vertex 7.16484 5.44657 2.5
      vertex 5.61306 5.27101 2.5
      vertex 6.74756 3.7095 2.5
    endloop
  endfacet
  facet normal 0 0 1
    outer loop
      vertex 4.12587 6.50132 2.5
      vertex 5.82648 6.85946 2.5
      vertex 4.21568 7.95161 2.5
    endloop
  endfacet
  facet normal 0 0 1
    outer loop
      vertex 5.82648 6.85946 2.5
      vertex 4.12587 6.50132 2.5
      vertex 5.61306 5.27101 2.5
    endloop
  endfacet
  facet normal 0 0 1
    outer loop
      vertex 2.37943 7.32313 2.5
      vertex 4.21568 7.95161 2.5
      vertex 2.40775 8.67195 2.5
    endloop
  endfacet
  facet normal 0 0 1
    outer loop
      vertex 4.21568 7.95161 2.5
      vertex 2.37943 7.32313 2.5
      vertex 4.12587 6.50132 2.5
    endloop
  endfacet
  facet normal 0 0 1
    outer loop
      vertex 0.483486 7.6848 2.5
      vertex 2.40775 8.67195 2.5
      vertex 0.487249 8.9868 2.5
    endloop
  endfacet
  facet normal 0 0 1
    outer loop
      vertex 2.40775 8.67195 2.5
      vertex 0.483486 7.6848 2.5
      vertex 2.37943 7.32313 2.5
    endloop
  endfacet
  facet normal -0 0 1
    outer loop
      vertex -1.45604 8.88144 2.5
      vertex 0.483486 7.6848 2.5
      vertex 0.487249 8.9868 2.5
    endloop
  endfacet
  facet normal 0 0 1
    outer loop
      vertex 0.483486 7.6848 2.5
      vertex -1.45604 8.88144 2.5
      vertex -1.44284 7.56361 2.5
    endloop
  endfacet
  facet normal -0 0 1
    outer loop
      vertex -3.33124 8.36079 2.5
      vertex -1.44284 7.56361 2.5
      vertex -1.45604 8.88144 2.5
    endloop
  endfacet
  facet normal 0 0 1
    outer loop
      vertex -1.44284 7.56361 2.5
      vertex -3.33124 8.36079 2.5
      vertex -3.2785 6.96717 2.5
    endloop
  endfacet
  facet normal -0 0 1
    outer loop
      vertex -5.05068 7.4492 2.5
      vertex -3.2785 6.96717 2.5
      vertex -3.33124 8.36079 2.5
    endloop
  endfacet
  facet normal 0 0 1
    outer loop
      vertex -3.2785 6.96717 2.5
      vertex -5.05068 7.4492 2.5
      vertex -4.90816 5.93295 2.5
    endloop
  endfacet
  facet normal -0 0 1
    outer loop
      vertex -6.53396 6.18929 2.5
      vertex -4.90816 5.93295 2.5
      vertex -5.05068 7.4492 2.5
    endloop
  endfacet
  facet normal 0 0 1
    outer loop
      vertex -4.90816 5.93295 2.5
      vertex -6.53396 6.18929 2.5
      vertex -6.22943 4.52595 2.5
    endloop
  endfacet
  facet normal -0 0 1
    outer loop
      vertex -7.71171 4.63998 2.5
      vertex -6.22943 4.52595 2.5
      vertex -6.53396 6.18929 2.5
    endloop
  endfacet
  facet normal 0 0 1
    outer loop
      vertex -6.22943 4.52595 2.5
      vertex -7.71171 4.63998 2.5
      vertex -7.15928 2.83456 2.5
    endloop
  endfacet
  facet normal 0 0 1
    outer loop
      vertex -7.15928 2.83456 2.5
      vertex -8.52888 2.87371 2.5
      vertex -7.63928 0.965065 2.5
    endloop
  endfacet
  facet normal -0 0 1
    outer loop
      vertex -8.52888 2.87371 2.5
      vertex -7.15928 2.83456 2.5
      vertex -7.71171 4.63998 2.5
    endloop
  endfacet
  facet normal 0 0 1
    outer loop
      vertex 8.78958 -1.93473 2.5
      vertex 7.45809 -1.91491 2.5
      vertex 8.16818 -3.779 2.5
    endloop
  endfacet
  facet normal -0 0 1
    outer loop
      vertex 6.74756 -3.7095 2.5
      vertex 8.16818 -3.779 2.5
      vertex 7.45809 -1.91491 2.5
    endloop
  endfacet
  facet normal 0 0 1
    outer loop
      vertex 8.16818 -3.779 2.5
      vertex 6.74756 -3.7095 2.5
      vertex 7.16484 -5.44657 2.5
    endloop
  endfacet
  facet normal -0 0 1
    outer loop
      vertex 5.61306 -5.27101 2.5
      vertex 7.16484 -5.44657 2.5
      vertex 6.74756 -3.7095 2.5
    endloop
  endfacet
  facet normal 0 0 1
    outer loop
      vertex 7.16484 -5.44657 2.5
      vertex 5.61306 -5.27101 2.5
      vertex 5.82648 -6.85946 2.5
    endloop
  endfacet
  facet normal -0 0 1
    outer loop
      vertex 4.12587 -6.50132 2.5
      vertex 5.82648 -6.85946 2.5
      vertex 5.61306 -5.27101 2.5
    endloop
  endfacet
  facet normal 0 0 1
    outer loop
      vertex 5.82648 -6.85946 2.5
      vertex 4.12587 -6.50132 2.5
      vertex 4.21568 -7.95161 2.5
    endloop
  endfacet
  facet normal -0 0 1
    outer loop
      vertex 2.37943 -7.32313 2.5
      vertex 4.21568 -7.95161 2.5
      vertex 4.12587 -6.50132 2.5
    endloop
  endfacet
  facet normal 0 0 1
    outer loop
      vertex 4.21568 -7.95161 2.5
      vertex 2.37943 -7.32313 2.5
      vertex 2.40775 -8.67195 2.5
    endloop
  endfacet
  facet normal -0 0 1
    outer loop
      vertex 0.483486 -7.6848 2.5
      vertex 2.40775 -8.67195 2.5
      vertex 2.37943 -7.32313 2.5
    endloop
  endfacet
  facet normal 0 0 1
    outer loop
      vertex 2.40775 -8.67195 2.5
      vertex 0.483486 -7.6848 2.5
      vertex 0.487249 -8.9868 2.5
    endloop
  endfacet
  facet normal 0 0 1
    outer loop
      vertex -1.45604 -8.88144 2.5
      vertex 0.483486 -7.6848 2.5
      vertex -1.44284 -7.56361 2.5
    endloop
  endfacet
  facet normal 0 0 1
    outer loop
      vertex 0.483486 -7.6848 2.5
      vertex -1.45604 -8.88144 2.5
      vertex 0.487249 -8.9868 2.5
    endloop
  endfacet
  facet normal 0 0 1
    outer loop
      vertex -3.33124 -8.36079 2.5
      vertex -1.44284 -7.56361 2.5
      vertex -3.2785 -6.96717 2.5
    endloop
  endfacet
  facet normal 0 0 1
    outer loop
      vertex -1.44284 -7.56361 2.5
      vertex -3.33124 -8.36079 2.5
      vertex -1.45604 -8.88144 2.5
    endloop
  endfacet
  facet normal 0 0 1
    outer loop
      vertex -5.05068 -7.4492 2.5
      vertex -3.2785 -6.96717 2.5
      vertex -4.90816 -5.93295 2.5
    endloop
  endfacet
  facet normal 0 0 1
    outer loop
      vertex -3.2785 -6.96717 2.5
      vertex -5.05068 -7.4492 2.5
      vertex -3.33124 -8.36079 2.5
    endloop
  endfacet
  facet normal 0 0 1
    outer loop
      vertex -6.53396 -6.18929 2.5
      vertex -4.90816 -5.93295 2.5
      vertex -6.22943 -4.52595 2.5
    endloop
  endfacet
  facet normal 0 0 1
    outer loop
      vertex -4.90816 -5.93295 2.5
      vertex -6.53396 -6.18929 2.5
      vertex -5.05068 -7.4492 2.5
    endloop
  endfacet
  facet normal 0 0 1
    outer loop
      vertex -7.71171 -4.63998 2.5
      vertex -6.22943 -4.52595 2.5
      vertex -7.15928 -2.83456 2.5
    endloop
  endfacet
  facet normal 0 0 1
    outer loop
      vertex -8.52888 -2.87371 2.5
      vertex -7.15928 -2.83456 2.5
      vertex -7.63928 -0.965065 2.5
    endloop
  endfacet
  facet normal 0 0 1
    outer loop
      vertex -6.22943 -4.52595 2.5
      vertex -7.71171 -4.63998 2.5
      vertex -6.53396 -6.18929 2.5
    endloop
  endfacet
  facet normal -0 0 1
    outer loop
      vertex -8.94724 0.973071 2.5
      vertex -7.63928 0.965065 2.5
      vertex -8.52888 2.87371 2.5
    endloop
  endfacet
  facet normal 0 0 1
    outer loop
      vertex -7.63928 0.965065 2.5
      vertex -8.94724 0.973071 2.5
      vertex -7.63928 -0.965065 2.5
    endloop
  endfacet
  facet normal 0 0 1
    outer loop
      vertex -7.15928 -2.83456 2.5
      vertex -8.52888 -2.87371 2.5
      vertex -7.71171 -4.63998 2.5
    endloop
  endfacet
  facet normal 0 0 1
    outer loop
      vertex -8.94724 -0.973071 2.5
      vertex -7.63928 -0.965065 2.5
      vertex -8.94724 0.973071 2.5
    endloop
  endfacet
  facet normal 0 0 1
    outer loop
      vertex -7.63928 -0.965065 2.5
      vertex -8.94724 -0.973071 2.5
      vertex -8.52888 -2.87371 2.5
    endloop
  endfacet
  facet normal -0.796094 -0.605173 0
    outer loop
      vertex -6.53396 -6.18929 -2.5
      vertex -7.71171 -4.63998 2.5
      vertex -7.71171 -4.63998 -2.5
    endloop
  endfacet
  facet normal -0.796094 -0.605173 0
    outer loop
      vertex -7.71171 -4.63998 2.5
      vertex -6.53396 -6.18929 -2.5
      vertex -6.53396 -6.18929 2.5
    endloop
  endfacet
  facet normal -0.26753 0.96355 0
    outer loop
      vertex -1.45604 8.88144 -2.5
      vertex -3.33124 8.36079 2.5
      vertex -1.45604 8.88144 2.5
    endloop
  endfacet
  facet normal -0.26753 0.96355 0
    outer loop
      vertex -3.33124 8.36079 2.5
      vertex -1.45604 8.88144 -2.5
      vertex -3.33124 8.36079 -2.5
    endloop
  endfacet
  facet normal 0.994138 -0.108122 0
    outer loop
      vertex 8.78958 -1.93473 2.5
      vertex 9 0 -2.5
      vertex 9 0 2.5
    endloop
  endfacet
  facet normal 0.994138 -0.108122 0
    outer loop
      vertex 9 0 -2.5
      vertex 8.78958 -1.93473 2.5
      vertex 8.78958 -1.93473 -2.5
    endloop
  endfacet
  facet normal -0.468409 0.883512 0
    outer loop
      vertex -3.33124 8.36079 -2.5
      vertex -5.05068 7.4492 2.5
      vertex -3.33124 8.36079 2.5
    endloop
  endfacet
  facet normal -0.468409 0.883512 0
    outer loop
      vertex -5.05068 7.4492 2.5
      vertex -3.33124 8.36079 -2.5
      vertex -5.05068 7.4492 -2.5
    endloop
  endfacet
  facet normal 0.561187 0.827689 -0
    outer loop
      vertex 5.82648 6.85946 -2.5
      vertex 4.21568 7.95161 2.5
      vertex 5.82648 6.85946 2.5
    endloop
  endfacet
  facet normal 0.561187 0.827689 0
    outer loop
      vertex 4.21568 7.95161 2.5
      vertex 5.82648 6.85946 -2.5
      vertex 4.21568 7.95161 -2.5
    endloop
  endfacet
  facet normal -0.26753 -0.96355 0
    outer loop
      vertex -3.33124 -8.36079 -2.5
      vertex -1.45604 -8.88144 2.5
      vertex -3.33124 -8.36079 2.5
    endloop
  endfacet
  facet normal -0.26753 -0.96355 -0
    outer loop
      vertex -1.45604 -8.88144 2.5
      vertex -3.33124 -8.36079 -2.5
      vertex -1.45604 -8.88144 -2.5
    endloop
  endfacet
  facet normal -0.468409 -0.883512 0
    outer loop
      vertex -5.05068 -7.4492 -2.5
      vertex -3.33124 -8.36079 2.5
      vertex -5.05068 -7.4492 2.5
    endloop
  endfacet
  facet normal -0.468409 -0.883512 -0
    outer loop
      vertex -3.33124 -8.36079 2.5
      vertex -5.05068 -7.4492 -2.5
      vertex -3.33124 -8.36079 -2.5
    endloop
  endfacet
  facet normal 0.856858 0.515553 0
    outer loop
      vertex 8.16818 3.779 2.5
      vertex 7.16484 5.44657 -2.5
      vertex 7.16484 5.44657 2.5
    endloop
  endfacet
  facet normal 0.856858 0.515553 0
    outer loop
      vertex 7.16484 5.44657 -2.5
      vertex 8.16818 3.779 2.5
      vertex 8.16818 3.779 -2.5
    endloop
  endfacet
  facet normal 0.161782 -0.986827 0
    outer loop
      vertex 0.487249 -8.9868 -2.5
      vertex 2.40775 -8.67195 2.5
      vertex 0.487249 -8.9868 2.5
    endloop
  endfacet
  facet normal 0.161782 -0.986827 0
    outer loop
      vertex 2.40775 -8.67195 2.5
      vertex 0.487249 -8.9868 -2.5
      vertex 2.40775 -8.67195 -2.5
    endloop
  endfacet
  facet normal 0 0 -1
    outer loop
      vertex 7.7 0 -2.5
      vertex 9 0 -2.5
      vertex 8.78958 -1.93473 -2.5
    endloop
  endfacet
  facet normal 0 0 -1
    outer loop
      vertex 7.45809 -1.91491 -2.5
      vertex 8.78958 -1.93473 -2.5
      vertex 8.16818 -3.779 -2.5
    endloop
  endfacet
  facet normal 0 0 -1
    outer loop
      vertex 9 0 -2.5
      vertex 7.7 0 -2.5
      vertex 8.78958 1.93473 -2.5
    endloop
  endfacet
  facet normal 0 0 -1
    outer loop
      vertex 7.45809 1.91491 -2.5
      vertex 8.78958 1.93473 -2.5
      vertex 7.7 0 -2.5
    endloop
  endfacet
  facet normal 0 0 -1
    outer loop
      vertex 8.78958 -1.93473 -2.5
      vertex 7.45809 -1.91491 -2.5
      vertex 7.7 0 -2.5
    endloop
  endfacet
  facet normal 0 0 -1
    outer loop
      vertex 6.74756 -3.7095 -2.5
      vertex 8.16818 -3.779 -2.5
      vertex 7.16484 -5.44657 -2.5
    endloop
  endfacet
  facet normal 0 0 -1
    outer loop
      vertex 8.16818 -3.779 -2.5
      vertex 6.74756 -3.7095 -2.5
      vertex 7.45809 -1.91491 -2.5
    endloop
  endfacet
  facet normal 0 0 -1
    outer loop
      vertex 5.61306 -5.27101 -2.5
      vertex 7.16484 -5.44657 -2.5
      vertex 5.82648 -6.85946 -2.5
    endloop
  endfacet
  facet normal 0 0 -1
    outer loop
      vertex 7.16484 -5.44657 -2.5
      vertex 5.61306 -5.27101 -2.5
      vertex 6.74756 -3.7095 -2.5
    endloop
  endfacet
  facet normal 0 0 -1
    outer loop
      vertex 4.12587 -6.50132 -2.5
      vertex 5.82648 -6.85946 -2.5
      vertex 4.21568 -7.95161 -2.5
    endloop
  endfacet
  facet normal 0 0 -1
    outer loop
      vertex 5.82648 -6.85946 -2.5
      vertex 4.12587 -6.50132 -2.5
      vertex 5.61306 -5.27101 -2.5
    endloop
  endfacet
  facet normal 0 0 -1
    outer loop
      vertex 2.37943 -7.32313 -2.5
      vertex 4.21568 -7.95161 -2.5
      vertex 2.40775 -8.67195 -2.5
    endloop
  endfacet
  facet normal 0 0 -1
    outer loop
      vertex 4.21568 -7.95161 -2.5
      vertex 2.37943 -7.32313 -2.5
      vertex 4.12587 -6.50132 -2.5
    endloop
  endfacet
  facet normal 0 0 -1
    outer loop
      vertex 0.483486 -7.6848 -2.5
      vertex 2.40775 -8.67195 -2.5
      vertex 0.487249 -8.9868 -2.5
    endloop
  endfacet
  facet normal 0 0 -1
    outer loop
      vertex 2.40775 -8.67195 -2.5
      vertex 0.483486 -7.6848 -2.5
      vertex 2.37943 -7.32313 -2.5
    endloop
  endfacet
  facet normal 0 0 -1
    outer loop
      vertex -1.45604 -8.88144 -2.5
      vertex 0.483486 -7.6848 -2.5
      vertex 0.487249 -8.9868 -2.5
    endloop
  endfacet
  facet normal -0 0 -1
    outer loop
      vertex 0.483486 -7.6848 -2.5
      vertex -1.45604 -8.88144 -2.5
      vertex -1.44284 -7.56361 -2.5
    endloop
  endfacet
  facet normal 0 0 -1
    outer loop
      vertex -3.33124 -8.36079 -2.5
      vertex -1.44284 -7.56361 -2.5
      vertex -1.45604 -8.88144 -2.5
    endloop
  endfacet
  facet normal -0 0 -1
    outer loop
      vertex -1.44284 -7.56361 -2.5
      vertex -3.33124 -8.36079 -2.5
      vertex -3.2785 -6.96717 -2.5
    endloop
  endfacet
  facet normal 0 0 -1
    outer loop
      vertex -5.05068 -7.4492 -2.5
      vertex -3.2785 -6.96717 -2.5
      vertex -3.33124 -8.36079 -2.5
    endloop
  endfacet
  facet normal -0 0 -1
    outer loop
      vertex -3.2785 -6.96717 -2.5
      vertex -5.05068 -7.4492 -2.5
      vertex -4.90816 -5.93295 -2.5
    endloop
  endfacet
  facet normal 0 0 -1
    outer loop
      vertex -6.53396 -6.18929 -2.5
      vertex -4.90816 -5.93295 -2.5
      vertex -5.05068 -7.4492 -2.5
    endloop
  endfacet
  facet normal -0 0 -1
    outer loop
      vertex -4.90816 -5.93295 -2.5
      vertex -6.53396 -6.18929 -2.5
      vertex -6.22943 -4.52595 -2.5
    endloop
  endfacet
  facet normal 0 0 -1
    outer loop
      vertex -7.71171 -4.63998 -2.5
      vertex -6.22943 -4.52595 -2.5
      vertex -6.53396 -6.18929 -2.5
    endloop
  endfacet
  facet normal -0 0 -1
    outer loop
      vertex -6.22943 -4.52595 -2.5
      vertex -7.71171 -4.63998 -2.5
      vertex -7.15928 -2.83456 -2.5
    endloop
  endfacet
  facet normal -0 0 -1
    outer loop
      vertex -7.15928 -2.83456 -2.5
      vertex -8.52888 -2.87371 -2.5
      vertex -7.63928 -0.965065 -2.5
    endloop
  endfacet
  facet normal 0 0 -1
    outer loop
      vertex -8.52888 -2.87371 -2.5
      vertex -7.15928 -2.83456 -2.5
      vertex -7.71171 -4.63998 -2.5
    endloop
  endfacet
  facet normal -0 0 -1
    outer loop
      vertex 8.78958 1.93473 -2.5
      vertex 7.45809 1.91491 -2.5
      vertex 8.16818 3.779 -2.5
    endloop
  endfacet
  facet normal 0 0 -1
    outer loop
      vertex 6.74756 3.7095 -2.5
      vertex 8.16818 3.779 -2.5
      vertex 7.45809 1.91491 -2.5
    endloop
  endfacet
  facet normal -0 0 -1
    outer loop
      vertex 8.16818 3.779 -2.5
      vertex 6.74756 3.7095 -2.5
      vertex 7.16484 5.44657 -2.5
    endloop
  endfacet
  facet normal 0 0 -1
    outer loop
      vertex 5.61306 5.27101 -2.5
      vertex 7.16484 5.44657 -2.5
      vertex 6.74756 3.7095 -2.5
    endloop
  endfacet
  facet normal -0 0 -1
    outer loop
      vertex 7.16484 5.44657 -2.5
      vertex 5.61306 5.27101 -2.5
      vertex 5.82648 6.85946 -2.5
    endloop
  endfacet
  facet normal 0 0 -1
    outer loop
      vertex 4.12587 6.50132 -2.5
      vertex 5.82648 6.85946 -2.5
      vertex 5.61306 5.27101 -2.5
    endloop
  endfacet
  facet normal -0 0 -1
    outer loop
      vertex 5.82648 6.85946 -2.5
      vertex 4.12587 6.50132 -2.5
      vertex 4.21568 7.95161 -2.5
    endloop
  endfacet
  facet normal 0 0 -1
    outer loop
      vertex 2.37943 7.32313 -2.5
      vertex 4.21568 7.95161 -2.5
      vertex 4.12587 6.50132 -2.5
    endloop
  endfacet
  facet normal -0 0 -1
    outer loop
      vertex 4.21568 7.95161 -2.5
      vertex 2.37943 7.32313 -2.5
      vertex 2.40775 8.67195 -2.5
    endloop
  endfacet
  facet normal 0 0 -1
    outer loop
      vertex 0.483486 7.6848 -2.5
      vertex 2.40775 8.67195 -2.5
      vertex 2.37943 7.32313 -2.5
    endloop
  endfacet
  facet normal -0 0 -1
    outer loop
      vertex 2.40775 8.67195 -2.5
      vertex 0.483486 7.6848 -2.5
      vertex 0.487249 8.9868 -2.5
    endloop
  endfacet
  facet normal 0 0 -1
    outer loop
      vertex -1.45604 8.88144 -2.5
      vertex 0.483486 7.6848 -2.5
      vertex -1.44284 7.56361 -2.5
    endloop
  endfacet
  facet normal 0 0 -1
    outer loop
      vertex 0.483486 7.6848 -2.5
      vertex -1.45604 8.88144 -2.5
      vertex 0.487249 8.9868 -2.5
    endloop
  endfacet
  facet normal 0 0 -1
    outer loop
      vertex -3.33124 8.36079 -2.5
      vertex -1.44284 7.56361 -2.5
      vertex -3.2785 6.96717 -2.5
    endloop
  endfacet
  facet normal 0 0 -1
    outer loop
      vertex -1.44284 7.56361 -2.5
      vertex -3.33124 8.36079 -2.5
      vertex -1.45604 8.88144 -2.5
    endloop
  endfacet
  facet normal 0 0 -1
    outer loop
      vertex -5.05068 7.4492 -2.5
      vertex -3.2785 6.96717 -2.5
      vertex -4.90816 5.93295 -2.5
    endloop
  endfacet
  facet normal 0 0 -1
    outer loop
      vertex -3.2785 6.96717 -2.5
      vertex -5.05068 7.4492 -2.5
      vertex -3.33124 8.36079 -2.5
    endloop
  endfacet
  facet normal 0 0 -1
    outer loop
      vertex -6.53396 6.18929 -2.5
      vertex -4.90816 5.93295 -2.5
      vertex -6.22943 4.52595 -2.5
    endloop
  endfacet
  facet normal 0 0 -1
    outer loop
      vertex -4.90816 5.93295 -2.5
      vertex -6.53396 6.18929 -2.5
      vertex -5.05068 7.4492 -2.5
    endloop
  endfacet
  facet normal 0 0 -1
    outer loop
      vertex -7.71171 4.63998 -2.5
      vertex -6.22943 4.52595 -2.5
      vertex -7.15928 2.83456 -2.5
    endloop
  endfacet
  facet normal 0 0 -1
    outer loop
      vertex -8.52888 2.87371 -2.5
      vertex -7.15928 2.83456 -2.5
      vertex -7.63928 0.965065 -2.5
    endloop
  endfacet
  facet normal 0 0 -1
    outer loop
      vertex -6.22943 4.52595 -2.5
      vertex -7.71171 4.63998 -2.5
      vertex -6.53396 6.18929 -2.5
    endloop
  endfacet
  facet normal 0 0 -1
    outer loop
      vertex -8.94724 -0.973071 -2.5
      vertex -7.63928 -0.965065 -2.5
      vertex -8.52888 -2.87371 -2.5
    endloop
  endfacet
  facet normal -0 0 -1
    outer loop
      vertex -7.63928 -0.965065 -2.5
      vertex -8.94724 -0.973071 -2.5
      vertex -7.63928 0.965065 -2.5
    endloop
  endfacet
  facet normal 0 0 -1
    outer loop
      vertex -7.15928 2.83456 -2.5
      vertex -8.52888 2.87371 -2.5
      vertex -7.71171 4.63998 -2.5
    endloop
  endfacet
  facet normal 0 0 -1
    outer loop
      vertex -8.94724 0.973071 -2.5
      vertex -7.63928 0.965065 -2.5
      vertex -8.94724 -0.973071 -2.5
    endloop
  endfacet
  facet normal 0 0 -1
    outer loop
      vertex -7.63928 0.965065 -2.5
      vertex -8.94724 0.973071 -2.5
      vertex -8.52888 2.87371 -2.5
    endloop
  endfacet
  facet normal -1 0 0
    outer loop
      vertex -8.94724 -0.973071 -2.5
      vertex -8.94724 0.973071 2.5
      vertex -8.94724 0.973071 -2.5
    endloop
  endfacet
  facet normal -1 -0 0
    outer loop
      vertex -8.94724 0.973071 2.5
      vertex -8.94724 -0.973071 -2.5
      vertex -8.94724 -0.973071 2.5
    endloop
  endfacet
  facet normal 0.725996 -0.687699 0
    outer loop
      vertex 5.82648 -6.85946 2.5
      vertex 7.16484 -5.44657 -2.5
      vertex 7.16484 -5.44657 2.5
    endloop
  endfacet
  facet normal 0.725996 -0.687699 0
    outer loop
      vertex 7.16484 -5.44657 -2.5
      vertex 5.82648 -6.85946 2.5
      vertex 5.82648 -6.85946 -2.5
    endloop
  endfacet
  facet normal 0.370136 -0.928978 0
    outer loop
      vertex 2.40775 -8.67195 -2.5
      vertex 4.21568 -7.95161 2.5
      vertex 2.40775 -8.67195 2.5
    endloop
  endfacet
  facet normal 0.370136 -0.928978 0
    outer loop
      vertex 4.21568 -7.95161 2.5
      vertex 2.40775 -8.67195 -2.5
      vertex 4.21568 -7.95161 -2.5
    endloop
  endfacet
  facet normal -0.907574 0.419892 0
    outer loop
      vertex -8.52888 2.87371 -2.5
      vertex -7.71171 4.63998 2.5
      vertex -7.71171 4.63998 -2.5
    endloop
  endfacet
  facet normal -0.907574 0.419892 0
    outer loop
      vertex -7.71171 4.63998 2.5
      vertex -8.52888 2.87371 -2.5
      vertex -8.52888 2.87371 2.5
    endloop
  endfacet
  facet normal -0.0541378 0.998533 0
    outer loop
      vertex 0.487249 8.9868 -2.5
      vertex -1.45604 8.88144 2.5
      vertex 0.487249 8.9868 2.5
    endloop
  endfacet
  facet normal -0.0541378 0.998533 0
    outer loop
      vertex -1.45604 8.88144 2.5
      vertex 0.487249 8.9868 -2.5
      vertex -1.45604 8.88144 -2.5
    endloop
  endfacet
  facet normal -0.796094 0.605173 0
    outer loop
      vertex -7.71171 4.63998 -2.5
      vertex -6.53396 6.18929 2.5
      vertex -6.53396 6.18929 -2.5
    endloop
  endfacet
  facet normal -0.796094 0.605173 0
    outer loop
      vertex -6.53396 6.18929 2.5
      vertex -7.71171 4.63998 -2.5
      vertex -7.71171 4.63998 2.5
    endloop
  endfacet
  facet normal -0.929776 -0.368125 0
    outer loop
      vertex 7.45809 1.91491 -2.5
      vertex 6.74756 3.7095 2.5
      vertex 6.74756 3.7095 -2.5
    endloop
  endfacet
  facet normal -0.929776 -0.368125 0
    outer loop
      vertex 6.74756 3.7095 2.5
      vertex 7.45809 1.91491 -2.5
      vertex 7.45809 1.91491 2.5
    endloop
  endfacet
  facet normal -0.992115 -0.125334 0
    outer loop
      vertex 7.7 0 -2.5
      vertex 7.45809 1.91491 2.5
      vertex 7.45809 1.91491 -2.5
    endloop
  endfacet
  facet normal -0.992115 -0.125334 0
    outer loop
      vertex 7.45809 1.91491 2.5
      vertex 7.7 0 -2.5
      vertex 7.7 0 2.5
    endloop
  endfacet
  facet normal -0.809018 -0.587784 0
    outer loop
      vertex 6.74756 3.7095 -2.5
      vertex 5.61306 5.27101 2.5
      vertex 5.61306 5.27101 -2.5
    endloop
  endfacet
  facet normal -0.809018 -0.587784 0
    outer loop
      vertex 5.61306 5.27101 2.5
      vertex 6.74756 3.7095 -2.5
      vertex 6.74756 3.7095 2.5
    endloop
  endfacet
  facet normal -0.187381 -0.982287 0
    outer loop
      vertex 0.483486 7.6848 -2.5
      vertex 2.37943 7.32313 2.5
      vertex 0.483486 7.6848 2.5
    endloop
  endfacet
  facet normal -0.187381 -0.982287 -0
    outer loop
      vertex 2.37943 7.32313 2.5
      vertex 0.483486 7.6848 -2.5
      vertex 2.37943 7.32313 -2.5
    endloop
  endfacet
  facet normal 0.309016 -0.951057 0
    outer loop
      vertex -3.2785 6.96717 -2.5
      vertex -1.44284 7.56361 2.5
      vertex -3.2785 6.96717 2.5
    endloop
  endfacet
  facet normal 0.309016 -0.951057 0
    outer loop
      vertex -1.44284 7.56361 2.5
      vertex -3.2785 6.96717 -2.5
      vertex -1.44284 7.56361 -2.5
    endloop
  endfacet
  facet normal 0.535829 -0.844326 0
    outer loop
      vertex -4.90816 5.93295 -2.5
      vertex -3.2785 6.96717 2.5
      vertex -4.90816 5.93295 2.5
    endloop
  endfacet
  facet normal 0.535829 -0.844326 0
    outer loop
      vertex -3.2785 6.96717 2.5
      vertex -4.90816 5.93295 -2.5
      vertex -3.2785 6.96717 -2.5
    endloop
  endfacet
  facet normal -0.637424 -0.770513 0
    outer loop
      vertex 4.12587 6.50132 -2.5
      vertex 5.61306 5.27101 2.5
      vertex 4.12587 6.50132 2.5
    endloop
  endfacet
  facet normal -0.637424 -0.770513 -0
    outer loop
      vertex 5.61306 5.27101 2.5
      vertex 4.12587 6.50132 -2.5
      vertex 5.61306 5.27101 -2.5
    endloop
  endfacet
  facet normal 0.728966 -0.68455 0
    outer loop
      vertex -6.22943 4.52595 2.5
      vertex -4.90816 5.93295 -2.5
      vertex -4.90816 5.93295 2.5
    endloop
  endfacet
  facet normal 0.728966 -0.68455 0
    outer loop
      vertex -4.90816 5.93295 -2.5
      vertex -6.22943 4.52595 2.5
      vertex -6.22943 4.52595 -2.5
    endloop
  endfacet
  facet normal -0.637424 0.770513 0
    outer loop
      vertex 5.61306 -5.27101 -2.5
      vertex 4.12587 -6.50132 2.5
      vertex 5.61306 -5.27101 2.5
    endloop
  endfacet
  facet normal -0.637424 0.770513 0
    outer loop
      vertex 4.12587 -6.50132 2.5
      vertex 5.61306 -5.27101 -2.5
      vertex 4.12587 -6.50132 -2.5
    endloop
  endfacet
  facet normal 0.0627884 0.998027 -0
    outer loop
      vertex 0.483486 -7.6848 -2.5
      vertex -1.44284 -7.56361 2.5
      vertex 0.483486 -7.6848 2.5
    endloop
  endfacet
  facet normal 0.0627884 0.998027 0
    outer loop
      vertex -1.44284 -7.56361 2.5
      vertex 0.483486 -7.6848 -2.5
      vertex -1.44284 -7.56361 -2.5
    endloop
  endfacet
  facet normal -0.187381 0.982287 0
    outer loop
      vertex 2.37943 -7.32313 -2.5
      vertex 0.483486 -7.6848 2.5
      vertex 2.37943 -7.32313 2.5
    endloop
  endfacet
  facet normal -0.187381 0.982287 0
    outer loop
      vertex 0.483486 -7.6848 2.5
      vertex 2.37943 -7.32313 -2.5
      vertex 0.483486 -7.6848 -2.5
    endloop
  endfacet
  facet normal -0.425778 0.904828 0
    outer loop
      vertex 4.12587 -6.50132 -2.5
      vertex 2.37943 -7.32313 2.5
      vertex 4.12587 -6.50132 2.5
    endloop
  endfacet
  facet normal -0.425778 0.904828 0
    outer loop
      vertex 2.37943 -7.32313 2.5
      vertex 4.12587 -6.50132 -2.5
      vertex 2.37943 -7.32313 -2.5
    endloop
  endfacet
  facet normal -0.992115 0.125334 0
    outer loop
      vertex 7.45809 -1.91491 -2.5
      vertex 7.7 0 2.5
      vertex 7.7 0 -2.5
    endloop
  endfacet
  facet normal -0.992115 0.125334 0
    outer loop
      vertex 7.7 0 2.5
      vertex 7.45809 -1.91491 -2.5
      vertex 7.45809 -1.91491 2.5
    endloop
  endfacet
  facet normal 1 -0 0
    outer loop
      vertex -7.63928 -0.965065 2.5
      vertex -7.63928 0.965065 -2.5
      vertex -7.63928 0.965065 2.5
    endloop
  endfacet
  facet normal 1 0 0
    outer loop
      vertex -7.63928 0.965065 -2.5
      vertex -7.63928 -0.965065 2.5
      vertex -7.63928 -0.965065 -2.5
    endloop
  endfacet
  facet normal 0.876307 -0.481754 0
    outer loop
      vertex -7.15928 2.83456 2.5
      vertex -6.22943 4.52595 -2.5
      vertex -6.22943 4.52595 2.5
    endloop
  endfacet
  facet normal 0.876307 -0.481754 0
    outer loop
      vertex -6.22943 4.52595 -2.5
      vertex -7.15928 2.83456 2.5
      vertex -7.15928 2.83456 -2.5
    endloop
  endfacet
  facet normal -0.929776 0.368125 0
    outer loop
      vertex 6.74756 -3.7095 -2.5
      vertex 7.45809 -1.91491 2.5
      vertex 7.45809 -1.91491 -2.5
    endloop
  endfacet
  facet normal -0.929776 0.368125 0
    outer loop
      vertex 7.45809 -1.91491 2.5
      vertex 6.74756 -3.7095 -2.5
      vertex 6.74756 -3.7095 2.5
    endloop
  endfacet
  facet normal -0.425778 -0.904828 0
    outer loop
      vertex 2.37943 7.32313 -2.5
      vertex 4.12587 6.50132 2.5
      vertex 2.37943 7.32313 2.5
    endloop
  endfacet
  facet normal -0.425778 -0.904828 -0
    outer loop
      vertex 4.12587 6.50132 2.5
      vertex 2.37943 7.32313 -2.5
      vertex 4.12587 6.50132 -2.5
    endloop
  endfacet
  facet normal 0.309016 0.951057 -0
    outer loop
      vertex -1.44284 -7.56361 -2.5
      vertex -3.2785 -6.96717 2.5
      vertex -1.44284 -7.56361 2.5
    endloop
  endfacet
  facet normal 0.309016 0.951057 0
    outer loop
      vertex -3.2785 -6.96717 2.5
      vertex -1.44284 -7.56361 -2.5
      vertex -3.2785 -6.96717 -2.5
    endloop
  endfacet
  facet normal 0.968584 0.248688 0
    outer loop
      vertex -7.15928 -2.83456 2.5
      vertex -7.63928 -0.965065 -2.5
      vertex -7.63928 -0.965065 2.5
    endloop
  endfacet
  facet normal 0.968584 0.248688 0
    outer loop
      vertex -7.63928 -0.965065 -2.5
      vertex -7.15928 -2.83456 2.5
      vertex -7.15928 -2.83456 -2.5
    endloop
  endfacet
  facet normal -0.809018 0.587784 0
    outer loop
      vertex 5.61306 -5.27101 -2.5
      vertex 6.74756 -3.7095 2.5
      vertex 6.74756 -3.7095 -2.5
    endloop
  endfacet
  facet normal -0.809018 0.587784 0
    outer loop
      vertex 6.74756 -3.7095 2.5
      vertex 5.61306 -5.27101 -2.5
      vertex 5.61306 -5.27101 2.5
    endloop
  endfacet
  facet normal 0.535829 0.844326 -0
    outer loop
      vertex -3.2785 -6.96717 -2.5
      vertex -4.90816 -5.93295 2.5
      vertex -3.2785 -6.96717 2.5
    endloop
  endfacet
  facet normal 0.535829 0.844326 0
    outer loop
      vertex -4.90816 -5.93295 2.5
      vertex -3.2785 -6.96717 -2.5
      vertex -4.90816 -5.93295 -2.5
    endloop
  endfacet
  facet normal 0.876307 0.481754 0
    outer loop
      vertex -6.22943 -4.52595 2.5
      vertex -7.15928 -2.83456 -2.5
      vertex -7.15928 -2.83456 2.5
    endloop
  endfacet
  facet normal 0.876307 0.481754 0
    outer loop
      vertex -7.15928 -2.83456 -2.5
      vertex -6.22943 -4.52595 2.5
      vertex -6.22943 -4.52595 -2.5
    endloop
  endfacet
  facet normal 0.728966 0.68455 0
    outer loop
      vertex -4.90816 -5.93295 2.5
      vertex -6.22943 -4.52595 -2.5
      vertex -6.22943 -4.52595 2.5
    endloop
  endfacet
  facet normal 0.728966 0.68455 0
    outer loop
      vertex -6.22943 -4.52595 -2.5
      vertex -4.90816 -5.93295 2.5
      vertex -4.90816 -5.93295 -2.5
    endloop
  endfacet
  facet normal 0.0627884 -0.998027 0
    outer loop
      vertex -1.44284 7.56361 -2.5
      vertex 0.483486 7.6848 2.5
      vertex -1.44284 7.56361 2.5
    endloop
  endfacet
  facet normal 0.0627884 -0.998027 0
    outer loop
      vertex 0.483486 7.6848 2.5
      vertex -1.44284 7.56361 -2.5
      vertex 0.483486 7.6848 -2.5
    endloop
  endfacet
  facet normal 0.968584 -0.248688 0
    outer loop
      vertex -7.63928 0.965065 2.5
      vertex -7.15928 2.83456 -2.5
      vertex -7.15928 2.83456 2.5
    endloop
  endfacet
  facet normal 0.968584 -0.248688 0
    outer loop
      vertex -7.15928 2.83456 -2.5
      vertex -7.63928 0.965065 2.5
      vertex -7.63928 0.965065 -2.5
    endloop
  endfacet
endsolid OpenSCAD_Model
