solid OpenSCAD_Model
  facet normal -0.994521 0.104539 0
    outer loop
      vertex -11 0 0
      vertex -10.7596 2.28703 30
      vertex -10.7596 2.28703 0
    endloop
  endfacet
  facet normal -0.994521 0.104539 0
    outer loop
      vertex -10.7596 2.28703 30
      vertex -11 0 0
      vertex -11 0 30
    endloop
  endfacet
  facet normal 0.951059 0.309008 0
    outer loop
      vertex 10.7596 2.28703 30
      vertex 10.049 4.4741 0
      vertex 10.049 4.4741 30
    endloop
  endfacet
  facet normal 0.951059 0.309008 0
    outer loop
      vertex 10.049 4.4741 0
      vertex 10.7596 2.28703 30
      vertex 10.7596 2.28703 0
    endloop
  endfacet
  facet normal 0.406729 0.913549 -0
    outer loop
      vertex 5.5 9.52628 7.5
      vertex 3.39919 10.4616 30
      vertex 5.5 9.52628 30
    endloop
  endfacet
  facet normal 0.406729 0.913549 0
    outer loop
      vertex 3.39919 10.4616 30
      vertex 5.5 9.52628 7.5
      vertex 3.39919 10.4616 7.5
    endloop
  endfacet
  facet normal -0.207903 0.978149 0
    outer loop
      vertex -1.14981 10.9397 7.5
      vertex -3.39919 10.4616 30
      vertex -1.14981 10.9397 30
    endloop
  endfacet
  facet normal -0.207903 0.978149 0
    outer loop
      vertex -3.39919 10.4616 30
      vertex -1.14981 10.9397 7.5
      vertex -3.39919 10.4616 7.5
    endloop
  endfacet
  facet normal -0.743143 0.669132 0
    outer loop
      vertex -7.5 8.01959 0
      vertex -8.89919 6.46564 0
      vertex -7.5 8.01959 7.5
    endloop
  endfacet
  facet normal -0.743151 0.669124 0
    outer loop
      vertex -7.5 8.01959 7.5
      vertex -7.36044 8.17459 30
      vertex -7.36044 8.17459 7.5
    endloop
  endfacet
  facet normal -0.743143 0.669132 0
    outer loop
      vertex -8.89919 6.46564 30
      vertex -7.5 8.01959 7.5
      vertex -8.89919 6.46564 0
    endloop
  endfacet
  facet normal -0.743144 0.669132 -1.00268e-07
    outer loop
      vertex -7.5 8.01959 7.5
      vertex -8.89919 6.46564 30
      vertex -7.36044 8.17459 30
    endloop
  endfacet
  facet normal 0.994521 -0.104539 0
    outer loop
      vertex 10.7596 -2.28703 30
      vertex 11 0 0
      vertex 11 0 30
    endloop
  endfacet
  facet normal 0.994521 -0.104539 0
    outer loop
      vertex 11 0 0
      vertex 10.7596 -2.28703 30
      vertex 10.7596 -2.28703 0
    endloop
  endfacet
  facet normal 0.994521 0.104539 0
    outer loop
      vertex 11 0 30
      vertex 10.7596 2.28703 0
      vertex 10.7596 2.28703 30
    endloop
  endfacet
  facet normal 0.994521 0.104539 0
    outer loop
      vertex 10.7596 2.28703 0
      vertex 11 0 30
      vertex 11 0 0
    endloop
  endfacet
  facet normal 0.207903 0.978149 -0
    outer loop
      vertex 3.39919 10.4616 7.5
      vertex 1.14981 10.9397 30
      vertex 3.39919 10.4616 30
    endloop
  endfacet
  facet normal 0.207903 0.978149 0
    outer loop
      vertex 1.14981 10.9397 30
      vertex 3.39919 10.4616 7.5
      vertex 1.14981 10.9397 7.5
    endloop
  endfacet
  facet normal -0.406729 0.913549 0
    outer loop
      vertex -3.39919 10.4616 7.5
      vertex -5.5 9.52628 30
      vertex -3.39919 10.4616 30
    endloop
  endfacet
  facet normal -0.406729 0.913549 0
    outer loop
      vertex -5.5 9.52628 30
      vertex -3.39919 10.4616 7.5
      vertex -5.5 9.52628 7.5
    endloop
  endfacet
  facet normal 0.866027 -0.499998 0
    outer loop
      vertex 8.89919 -6.46564 30
      vertex 10.049 -4.4741 0
      vertex 10.049 -4.4741 30
    endloop
  endfacet
  facet normal 0.866027 -0.499998 0
    outer loop
      vertex 10.049 -4.4741 0
      vertex 8.89919 -6.46564 30
      vertex 8.89919 -6.46564 0
    endloop
  endfacet
  facet normal 0 0 1
    outer loop
      vertex 7.65 0 30
      vertex 11 0 30
      vertex 10.7596 2.28703 30
    endloop
  endfacet
  facet normal 0 0 1
    outer loop
      vertex 7.40966 1.90248 30
      vertex 10.7596 2.28703 30
      vertex 10.049 4.4741 30
    endloop
  endfacet
  facet normal 0 0 1
    outer loop
      vertex 11 0 30
      vertex 7.65 0 30
      vertex 10.7596 -2.28703 30
    endloop
  endfacet
  facet normal 0 0 1
    outer loop
      vertex 6.70375 3.68542 30
      vertex 10.049 4.4741 30
      vertex 8.89919 6.46564 30
    endloop
  endfacet
  facet normal -0 0 1
    outer loop
      vertex 7.40966 -1.90248 30
      vertex 10.7596 -2.28703 30
      vertex 7.65 0 30
    endloop
  endfacet
  facet normal 0 0 1
    outer loop
      vertex 10.7596 -2.28703 30
      vertex 7.40966 -1.90248 30
      vertex 10.049 -4.4741 30
    endloop
  endfacet
  facet normal 0 0 1
    outer loop
      vertex 10.7596 2.28703 30
      vertex 7.40966 1.90248 30
      vertex 7.65 0 30
    endloop
  endfacet
  facet normal 0 0 1
    outer loop
      vertex 5.57661 5.23678 30
      vertex 8.89919 6.46564 30
      vertex 7.36044 8.17459 30
    endloop
  endfacet
  facet normal 0 0 1
    outer loop
      vertex 10.049 4.4741 30
      vertex 6.70375 3.68542 30
      vertex 7.40966 1.90248 30
    endloop
  endfacet
  facet normal 0 0 1
    outer loop
      vertex 8.89919 6.46564 30
      vertex 5.57661 5.23678 30
      vertex 6.70375 3.68542 30
    endloop
  endfacet
  facet normal 0 0 1
    outer loop
      vertex 4.09907 6.45911 30
      vertex 7.36044 8.17459 30
      vertex 5.5 9.52628 30
    endloop
  endfacet
  facet normal 0 0 1
    outer loop
      vertex 7.36044 8.17459 30
      vertex 4.09907 6.45911 30
      vertex 5.57661 5.23678 30
    endloop
  endfacet
  facet normal 0 0 1
    outer loop
      vertex 2.36398 7.27558 30
      vertex 5.5 9.52628 30
      vertex 3.39919 10.4616 30
    endloop
  endfacet
  facet normal 0 0 1
    outer loop
      vertex 5.5 9.52628 30
      vertex 2.36398 7.27558 30
      vertex 4.09907 6.45911 30
    endloop
  endfacet
  facet normal 0 0 1
    outer loop
      vertex 1.14981 10.9397 30
      vertex 2.36398 7.27558 30
      vertex 3.39919 10.4616 30
    endloop
  endfacet
  facet normal 0 0 1
    outer loop
      vertex 1.14981 10.9397 30
      vertex 0.480347 7.6349 30
      vertex 2.36398 7.27558 30
    endloop
  endfacet
  facet normal -0 0 1
    outer loop
      vertex -1.14981 10.9397 30
      vertex 0.480347 7.6349 30
      vertex 1.14981 10.9397 30
    endloop
  endfacet
  facet normal 0 0 1
    outer loop
      vertex -1.14981 10.9397 30
      vertex -1.43347 7.5145 30
      vertex 0.480347 7.6349 30
    endloop
  endfacet
  facet normal -0 0 1
    outer loop
      vertex -3.39919 10.4616 30
      vertex -1.43347 7.5145 30
      vertex -1.14981 10.9397 30
    endloop
  endfacet
  facet normal 0 0 1
    outer loop
      vertex -1.43347 7.5145 30
      vertex -3.39919 10.4616 30
      vertex -3.25721 6.92193 30
    endloop
  endfacet
  facet normal -0 0 1
    outer loop
      vertex -5.5 9.52628 30
      vertex -3.25721 6.92193 30
      vertex -3.39919 10.4616 30
    endloop
  endfacet
  facet normal 0 0 1
    outer loop
      vertex -3.25721 6.92193 30
      vertex -5.5 9.52628 30
      vertex -4.87629 5.89443 30
    endloop
  endfacet
  facet normal -0 0 1
    outer loop
      vertex -7.36044 8.17459 30
      vertex -4.87629 5.89443 30
      vertex -5.5 9.52628 30
    endloop
  endfacet
  facet normal 0 0 1
    outer loop
      vertex -4.87629 5.89443 30
      vertex -7.36044 8.17459 30
      vertex -6.18898 4.49656 30
    endloop
  endfacet
  facet normal -0 0 1
    outer loop
      vertex -8.89919 6.46564 30
      vertex -6.18898 4.49656 30
      vertex -7.36044 8.17459 30
    endloop
  endfacet
  facet normal 0 0 1
    outer loop
      vertex -10.049 4.4741 30
      vertex -6.18898 4.49656 30
      vertex -8.89919 6.46564 30
    endloop
  endfacet
  facet normal 0 0 1
    outer loop
      vertex -10.7596 2.28703 30
      vertex -7.11279 2.81615 30
      vertex -10.049 4.4741 30
    endloop
  endfacet
  facet normal 0 0 1
    outer loop
      vertex -6.18898 4.49656 30
      vertex -10.049 4.4741 30
      vertex -7.11279 2.81615 30
    endloop
  endfacet
  facet normal -0 0 1
    outer loop
      vertex 6.70375 -3.68542 30
      vertex 10.049 -4.4741 30
      vertex 7.40966 -1.90248 30
    endloop
  endfacet
  facet normal 0 0 1
    outer loop
      vertex 10.049 -4.4741 30
      vertex 6.70375 -3.68542 30
      vertex 8.89919 -6.46564 30
    endloop
  endfacet
  facet normal -0 0 1
    outer loop
      vertex 5.57661 -5.23678 30
      vertex 8.89919 -6.46564 30
      vertex 6.70375 -3.68542 30
    endloop
  endfacet
  facet normal 0 0 1
    outer loop
      vertex 8.89919 -6.46564 30
      vertex 5.57661 -5.23678 30
      vertex 7.36044 -8.17459 30
    endloop
  endfacet
  facet normal -0 0 1
    outer loop
      vertex 4.09907 -6.45911 30
      vertex 7.36044 -8.17459 30
      vertex 5.57661 -5.23678 30
    endloop
  endfacet
  facet normal 0 0 1
    outer loop
      vertex 7.36044 -8.17459 30
      vertex 4.09907 -6.45911 30
      vertex 5.5 -9.52628 30
    endloop
  endfacet
  facet normal -0 0 1
    outer loop
      vertex 2.36398 -7.27558 30
      vertex 5.5 -9.52628 30
      vertex 4.09907 -6.45911 30
    endloop
  endfacet
  facet normal 0 0 1
    outer loop
      vertex 5.5 -9.52628 30
      vertex 2.36398 -7.27558 30
      vertex 3.39919 -10.4616 30
    endloop
  endfacet
  facet normal 0 0 1
    outer loop
      vertex 2.36398 -7.27558 30
      vertex 1.14981 -10.9397 30
      vertex 3.39919 -10.4616 30
    endloop
  endfacet
  facet normal -0 0 1
    outer loop
      vertex 0.480347 -7.6349 30
      vertex 1.14981 -10.9397 30
      vertex 2.36398 -7.27558 30
    endloop
  endfacet
  facet normal 0 0 1
    outer loop
      vertex 0.480347 -7.6349 30
      vertex -1.14981 -10.9397 30
      vertex 1.14981 -10.9397 30
    endloop
  endfacet
  facet normal 0 0 1
    outer loop
      vertex -1.43347 -7.5145 30
      vertex -1.14981 -10.9397 30
      vertex 0.480347 -7.6349 30
    endloop
  endfacet
  facet normal 0 0 1
    outer loop
      vertex -3.39919 -10.4616 30
      vertex -1.43347 -7.5145 30
      vertex -3.25721 -6.92193 30
    endloop
  endfacet
  facet normal 0 0 1
    outer loop
      vertex -1.43347 -7.5145 30
      vertex -3.39919 -10.4616 30
      vertex -1.14981 -10.9397 30
    endloop
  endfacet
  facet normal 0 0 1
    outer loop
      vertex -5.5 -9.52628 30
      vertex -3.25721 -6.92193 30
      vertex -4.87629 -5.89443 30
    endloop
  endfacet
  facet normal 0 0 1
    outer loop
      vertex -3.25721 -6.92193 30
      vertex -5.5 -9.52628 30
      vertex -3.39919 -10.4616 30
    endloop
  endfacet
  facet normal 0 0 1
    outer loop
      vertex -7.36044 -8.17459 30
      vertex -4.87629 -5.89443 30
      vertex -6.18898 -4.49656 30
    endloop
  endfacet
  facet normal -0 0 1
    outer loop
      vertex -10.049 -4.4741 30
      vertex -6.18898 -4.49656 30
      vertex -7.11279 -2.81615 30
    endloop
  endfacet
  facet normal 0 0 1
    outer loop
      vertex -4.87629 -5.89443 30
      vertex -7.36044 -8.17459 30
      vertex -5.5 -9.52628 30
    endloop
  endfacet
  facet normal -0 0 1
    outer loop
      vertex -10.7596 -2.28703 30
      vertex -7.11279 -2.81615 30
      vertex -7.58968 -0.958798 30
    endloop
  endfacet
  facet normal 0 0 1
    outer loop
      vertex -7.11279 2.81615 30
      vertex -10.7596 2.28703 30
      vertex -7.58968 0.958798 30
    endloop
  endfacet
  facet normal 0 0 1
    outer loop
      vertex -6.18898 -4.49656 30
      vertex -8.89919 -6.46564 30
      vertex -7.36044 -8.17459 30
    endloop
  endfacet
  facet normal 0 0 1
    outer loop
      vertex -11 0 30
      vertex -7.58968 0.958798 30
      vertex -10.7596 2.28703 30
    endloop
  endfacet
  facet normal 0 0 1
    outer loop
      vertex -6.18898 -4.49656 30
      vertex -10.049 -4.4741 30
      vertex -8.89919 -6.46564 30
    endloop
  endfacet
  facet normal 0 0 1
    outer loop
      vertex -7.58968 0.958798 30
      vertex -11 0 30
      vertex -7.58968 -0.958798 30
    endloop
  endfacet
  facet normal 0 0 1
    outer loop
      vertex -7.11279 -2.81615 30
      vertex -10.7596 -2.28703 30
      vertex -10.049 -4.4741 30
    endloop
  endfacet
  facet normal 0 0 1
    outer loop
      vertex -7.58968 -0.958798 30
      vertex -11 0 30
      vertex -10.7596 -2.28703 30
    endloop
  endfacet
  facet normal -0.406729 -0.913549 0
    outer loop
      vertex -5.5 -9.52628 7.5
      vertex -3.39919 -10.4616 30
      vertex -5.5 -9.52628 30
    endloop
  endfacet
  facet normal -0.406729 -0.913549 -0
    outer loop
      vertex -3.39919 -10.4616 30
      vertex -5.5 -9.52628 7.5
      vertex -3.39919 -10.4616 7.5
    endloop
  endfacet
  facet normal 0.207903 -0.978149 0
    outer loop
      vertex 1.14981 -10.9397 7.5
      vertex 3.39919 -10.4616 30
      vertex 1.14981 -10.9397 30
    endloop
  endfacet
  facet normal 0.207903 -0.978149 0
    outer loop
      vertex 3.39919 -10.4616 30
      vertex 1.14981 -10.9397 7.5
      vertex 3.39919 -10.4616 7.5
    endloop
  endfacet
  facet normal 0.866027 0.499998 0
    outer loop
      vertex 10.049 4.4741 30
      vertex 8.89919 6.46564 0
      vertex 8.89919 6.46564 30
    endloop
  endfacet
  facet normal 0.866027 0.499998 0
    outer loop
      vertex 8.89919 6.46564 0
      vertex 10.049 4.4741 30
      vertex 10.049 4.4741 0
    endloop
  endfacet
  facet normal -0.207903 -0.978149 0
    outer loop
      vertex -3.39919 -10.4616 7.5
      vertex -1.14981 -10.9397 30
      vertex -3.39919 -10.4616 30
    endloop
  endfacet
  facet normal -0.207903 -0.978149 -0
    outer loop
      vertex -1.14981 -10.9397 30
      vertex -3.39919 -10.4616 7.5
      vertex -1.14981 -10.9397 7.5
    endloop
  endfacet
  facet normal 0.406729 -0.913549 0
    outer loop
      vertex 3.39919 -10.4616 7.5
      vertex 5.5 -9.52628 30
      vertex 3.39919 -10.4616 30
    endloop
  endfacet
  facet normal 0.406729 -0.913549 0
    outer loop
      vertex 5.5 -9.52628 30
      vertex 3.39919 -10.4616 7.5
      vertex 5.5 -9.52628 7.5
    endloop
  endfacet
  facet normal 0.587786 -0.809017 0
    outer loop
      vertex 5.5 -9.52628 7.5
      vertex 7.36044 -8.17459 30
      vertex 5.5 -9.52628 30
    endloop
  endfacet
  facet normal 0.587786 -0.809017 0
    outer loop
      vertex 7.36044 -8.17459 30
      vertex 5.5 -9.52628 7.5
      vertex 7.36044 -8.17459 7.5
    endloop
  endfacet
  facet normal 0.743143 -0.669132 0
    outer loop
      vertex 8.89919 -6.46564 30
      vertex 7.5 -8.01959 7.5
      vertex 8.89919 -6.46564 0
    endloop
  endfacet
  facet normal 0.743144 -0.669132 -1.00268e-07
    outer loop
      vertex 7.36044 -8.17459 30
      vertex 7.5 -8.01959 7.5
      vertex 8.89919 -6.46564 30
    endloop
  endfacet
  facet normal 0.743151 -0.669124 0
    outer loop
      vertex 7.5 -8.01959 7.5
      vertex 7.36044 -8.17459 30
      vertex 7.36044 -8.17459 7.5
    endloop
  endfacet
  facet normal 0.743143 -0.669132 0
    outer loop
      vertex 8.89919 -6.46564 0
      vertex 7.5 -8.01959 7.5
      vertex 7.5 -8.01959 0
    endloop
  endfacet
  facet normal 0.743151 0.669124 0
    outer loop
      vertex 7.36044 8.17459 30
      vertex 7.5 8.01959 7.5
      vertex 7.36044 8.17459 7.5
    endloop
  endfacet
  facet normal 0.743144 0.669132 -1.00268e-07
    outer loop
      vertex 8.89919 6.46564 30
      vertex 7.5 8.01959 7.5
      vertex 7.36044 8.17459 30
    endloop
  endfacet
  facet normal 0.743143 0.669132 -0
    outer loop
      vertex 8.89919 6.46564 0
      vertex 7.5 8.01959 7.5
      vertex 8.89919 6.46564 30
    endloop
  endfacet
  facet normal 0.743143 0.669132 0
    outer loop
      vertex 7.5 8.01959 7.5
      vertex 8.89919 6.46564 0
      vertex 7.5 8.01959 0
    endloop
  endfacet
  facet normal 0.951059 -0.309008 0
    outer loop
      vertex 10.049 -4.4741 30
      vertex 10.7596 -2.28703 0
      vertex 10.7596 -2.28703 30
    endloop
  endfacet
  facet normal 0.951059 -0.309008 0
    outer loop
      vertex 10.7596 -2.28703 0
      vertex 10.049 -4.4741 30
      vertex 10.049 -4.4741 0
    endloop
  endfacet
  facet normal -0.866027 0.499998 0
    outer loop
      vertex -10.049 4.4741 0
      vertex -8.89919 6.46564 30
      vertex -8.89919 6.46564 0
    endloop
  endfacet
  facet normal -0.866027 0.499998 0
    outer loop
      vertex -8.89919 6.46564 30
      vertex -10.049 4.4741 0
      vertex -10.049 4.4741 30
    endloop
  endfacet
  facet normal -0.743143 -0.669132 -0
    outer loop
      vertex -7.5 -8.01959 7.5
      vertex -8.89919 -6.46564 0
      vertex -7.5 -8.01959 0
    endloop
  endfacet
  facet normal -0.743143 -0.669132 0
    outer loop
      vertex -8.89919 -6.46564 0
      vertex -7.5 -8.01959 7.5
      vertex -8.89919 -6.46564 30
    endloop
  endfacet
  facet normal -0.743151 -0.669124 -0
    outer loop
      vertex -7.36044 -8.17459 30
      vertex -7.5 -8.01959 7.5
      vertex -7.36044 -8.17459 7.5
    endloop
  endfacet
  facet normal -0.743144 -0.669132 -1.00268e-07
    outer loop
      vertex -7.5 -8.01959 7.5
      vertex -7.36044 -8.17459 30
      vertex -8.89919 -6.46564 30
    endloop
  endfacet
  facet normal 0.587786 0.809017 -0
    outer loop
      vertex 7.36044 8.17459 7.5
      vertex 5.5 9.52628 30
      vertex 7.36044 8.17459 30
    endloop
  endfacet
  facet normal 0.587786 0.809017 0
    outer loop
      vertex 5.5 9.52628 30
      vertex 7.36044 8.17459 7.5
      vertex 5.5 9.52628 7.5
    endloop
  endfacet
  facet normal 0 0 -1
    outer loop
      vertex -8.89919 -6.46564 0
      vertex -7.5 8.01959 0
      vertex -7.5 -8.01959 0
    endloop
  endfacet
  facet normal 0 0 -1
    outer loop
      vertex -8.89919 -6.46564 0
      vertex -8.89919 6.46564 0
      vertex -7.5 8.01959 0
    endloop
  endfacet
  facet normal 0 0 -1
    outer loop
      vertex -10.049 -4.4741 0
      vertex -8.89919 6.46564 0
      vertex -8.89919 -6.46564 0
    endloop
  endfacet
  facet normal 0 0 -1
    outer loop
      vertex -10.049 -4.4741 0
      vertex -10.049 4.4741 0
      vertex -8.89919 6.46564 0
    endloop
  endfacet
  facet normal 0 0 -1
    outer loop
      vertex -10.7596 -2.28703 0
      vertex -10.049 4.4741 0
      vertex -10.049 -4.4741 0
    endloop
  endfacet
  facet normal 0 0 -1
    outer loop
      vertex -10.7596 -2.28703 0
      vertex -10.7596 2.28703 0
      vertex -10.049 4.4741 0
    endloop
  endfacet
  facet normal 0 -0 -1
    outer loop
      vertex -10.7596 2.28703 0
      vertex -10.7596 -2.28703 0
      vertex -11 0 0
    endloop
  endfacet
  facet normal 0 0 -1
    outer loop
      vertex 10.7596 -2.28703 0
      vertex 10.7596 2.28703 0
      vertex 11 0 0
    endloop
  endfacet
  facet normal 0 0 -1
    outer loop
      vertex 10.049 -4.4741 0
      vertex 10.7596 2.28703 0
      vertex 10.7596 -2.28703 0
    endloop
  endfacet
  facet normal 0 0 -1
    outer loop
      vertex 10.049 -4.4741 0
      vertex 10.049 4.4741 0
      vertex 10.7596 2.28703 0
    endloop
  endfacet
  facet normal 0 0 -1
    outer loop
      vertex 8.89919 -6.46564 0
      vertex 10.049 4.4741 0
      vertex 10.049 -4.4741 0
    endloop
  endfacet
  facet normal 0 0 -1
    outer loop
      vertex 8.89919 -6.46564 0
      vertex 8.89919 6.46564 0
      vertex 10.049 4.4741 0
    endloop
  endfacet
  facet normal 0 0 -1
    outer loop
      vertex 7.5 -8.01959 0
      vertex 8.89919 6.46564 0
      vertex 8.89919 -6.46564 0
    endloop
  endfacet
  facet normal -0 0 -1
    outer loop
      vertex 8.89919 6.46564 0
      vertex 7.5 -8.01959 0
      vertex 7.5 8.01959 0
    endloop
  endfacet
  facet normal -0.587786 0.809017 0
    outer loop
      vertex -5.5 9.52628 7.5
      vertex -7.36044 8.17459 30
      vertex -5.5 9.52628 30
    endloop
  endfacet
  facet normal -0.587786 0.809017 0
    outer loop
      vertex -7.36044 8.17459 30
      vertex -5.5 9.52628 7.5
      vertex -7.36044 8.17459 7.5
    endloop
  endfacet
  facet normal -0.951059 -0.309008 0
    outer loop
      vertex -10.049 -4.4741 0
      vertex -10.7596 -2.28703 30
      vertex -10.7596 -2.28703 0
    endloop
  endfacet
  facet normal -0.951059 -0.309008 0
    outer loop
      vertex -10.7596 -2.28703 30
      vertex -10.049 -4.4741 0
      vertex -10.049 -4.4741 30
    endloop
  endfacet
  facet normal -0.866027 -0.499998 0
    outer loop
      vertex -8.89919 -6.46564 0
      vertex -10.049 -4.4741 30
      vertex -10.049 -4.4741 0
    endloop
  endfacet
  facet normal -0.866027 -0.499998 0
    outer loop
      vertex -10.049 -4.4741 30
      vertex -8.89919 -6.46564 0
      vertex -8.89919 -6.46564 30
    endloop
  endfacet
  facet normal -0.951059 0.309008 0
    outer loop
      vertex -10.7596 2.28703 0
      vertex -10.049 4.4741 30
      vertex -10.049 4.4741 0
    endloop
  endfacet
  facet normal -0.951059 0.309008 0
    outer loop
      vertex -10.049 4.4741 30
      vertex -10.7596 2.28703 0
      vertex -10.7596 2.28703 30
    endloop
  endfacet
  facet normal 0 -1 0
    outer loop
      vertex -1.14981 -10.9397 7.5
      vertex 1.14981 -10.9397 30
      vertex -1.14981 -10.9397 30
    endloop
  endfacet
  facet normal 0 -1 -0
    outer loop
      vertex 1.14981 -10.9397 30
      vertex -1.14981 -10.9397 7.5
      vertex 1.14981 -10.9397 7.5
    endloop
  endfacet
  facet normal -0.994521 -0.104539 0
    outer loop
      vertex -10.7596 -2.28703 0
      vertex -11 0 30
      vertex -11 0 0
    endloop
  endfacet
  facet normal -0.994521 -0.104539 0
    outer loop
      vertex -11 0 30
      vertex -10.7596 -2.28703 0
      vertex -10.7596 -2.28703 30
    endloop
  endfacet
  facet normal 0 1 -0
    outer loop
      vertex 1.14981 10.9397 7.5
      vertex -1.14981 10.9397 30
      vertex 1.14981 10.9397 30
    endloop
  endfacet
  facet normal 0 1 0
    outer loop
      vertex -1.14981 10.9397 30
      vertex 1.14981 10.9397 7.5
      vertex -1.14981 10.9397 7.5
    endloop
  endfacet
  facet normal -0.587786 -0.809017 0
    outer loop
      vertex -7.36044 -8.17459 7.5
      vertex -5.5 -9.52628 30
      vertex -7.36044 -8.17459 30
    endloop
  endfacet
  facet normal -0.587786 -0.809017 -0
    outer loop
      vertex -5.5 -9.52628 30
      vertex -7.36044 -8.17459 7.5
      vertex -5.5 -9.52628 7.5
    endloop
  endfacet
  facet normal -0.992115 -0.125334 0
    outer loop
      vertex 7.65 0 10
      vertex 7.40966 1.90248 30
      vertex 7.40966 1.90248 10
    endloop
  endfacet
  facet normal -0.992115 -0.125334 0
    outer loop
      vertex 7.40966 1.90248 30
      vertex 7.65 0 10
      vertex 7.65 0 30
    endloop
  endfacet
  facet normal -0.929778 -0.368122 0
    outer loop
      vertex 7.40966 1.90248 10
      vertex 6.70375 3.68542 30
      vertex 6.70375 3.68542 10
    endloop
  endfacet
  facet normal -0.929778 -0.368122 0
    outer loop
      vertex 6.70375 3.68542 30
      vertex 7.40966 1.90248 10
      vertex 7.40966 1.90248 30
    endloop
  endfacet
  facet normal 0.309017 -0.951056 0
    outer loop
      vertex -3.25721 6.92193 10
      vertex -1.43347 7.5145 30
      vertex -3.25721 6.92193 30
    endloop
  endfacet
  facet normal 0.309017 -0.951056 0
    outer loop
      vertex -1.43347 7.5145 30
      vertex -3.25721 6.92193 10
      vertex -1.43347 7.5145 10
    endloop
  endfacet
  facet normal -0.637425 0.770513 0
    outer loop
      vertex 5.57661 -5.23678 10
      vertex 4.09907 -6.45911 30
      vertex 5.57661 -5.23678 30
    endloop
  endfacet
  facet normal -0.637425 0.770513 0
    outer loop
      vertex 4.09907 -6.45911 30
      vertex 5.57661 -5.23678 10
      vertex 4.09907 -6.45911 10
    endloop
  endfacet
  facet normal 0.968583 -0.248691 0
    outer loop
      vertex -7.58968 0.958798 30
      vertex -7.11279 2.81615 10
      vertex -7.11279 2.81615 30
    endloop
  endfacet
  facet normal 0.968583 -0.248691 0
    outer loop
      vertex -7.11279 2.81615 10
      vertex -7.58968 0.958798 30
      vertex -7.58968 0.958798 10
    endloop
  endfacet
  facet normal 0.535827 -0.844328 0
    outer loop
      vertex -4.87629 5.89443 10
      vertex -3.25721 6.92193 30
      vertex -4.87629 5.89443 30
    endloop
  endfacet
  facet normal 0.535827 -0.844328 0
    outer loop
      vertex -3.25721 6.92193 30
      vertex -4.87629 5.89443 10
      vertex -3.25721 6.92193 10
    endloop
  endfacet
  facet normal -0.809014 0.587789 0
    outer loop
      vertex 5.57661 -5.23678 10
      vertex 6.70375 -3.68542 30
      vertex 6.70375 -3.68542 10
    endloop
  endfacet
  facet normal -0.809014 0.587789 0
    outer loop
      vertex 6.70375 -3.68542 30
      vertex 5.57661 -5.23678 10
      vertex 5.57661 -5.23678 30
    endloop
  endfacet
  facet normal 0.0627868 -0.998027 0
    outer loop
      vertex -1.43347 7.5145 10
      vertex 0.480347 7.6349 30
      vertex -1.43347 7.5145 30
    endloop
  endfacet
  facet normal 0.0627868 -0.998027 0
    outer loop
      vertex 0.480347 7.6349 30
      vertex -1.43347 7.5145 10
      vertex 0.480347 7.6349 10
    endloop
  endfacet
  facet normal 1 -0 0
    outer loop
      vertex -7.58968 -0.958798 30
      vertex -7.58968 0.958798 10
      vertex -7.58968 0.958798 30
    endloop
  endfacet
  facet normal 1 0 0
    outer loop
      vertex -7.58968 0.958798 10
      vertex -7.58968 -0.958798 30
      vertex -7.58968 -0.958798 10
    endloop
  endfacet
  facet normal 0.309017 0.951056 -0
    outer loop
      vertex -1.43347 -7.5145 10
      vertex -3.25721 -6.92193 30
      vertex -1.43347 -7.5145 30
    endloop
  endfacet
  facet normal 0.309017 0.951056 0
    outer loop
      vertex -3.25721 -6.92193 30
      vertex -1.43347 -7.5145 10
      vertex -3.25721 -6.92193 10
    endloop
  endfacet
  facet normal 0.876307 -0.481752 0
    outer loop
      vertex -7.11279 2.81615 30
      vertex -6.18898 4.49656 10
      vertex -6.18898 4.49656 30
    endloop
  endfacet
  facet normal 0.876307 -0.481752 0
    outer loop
      vertex -6.18898 4.49656 10
      vertex -7.11279 2.81615 30
      vertex -7.11279 2.81615 10
    endloop
  endfacet
  facet normal -0.18738 0.982287 0
    outer loop
      vertex 2.36398 -7.27558 10
      vertex 0.480347 -7.6349 30
      vertex 2.36398 -7.27558 30
    endloop
  endfacet
  facet normal -0.18738 0.982287 0
    outer loop
      vertex 0.480347 -7.6349 30
      vertex 2.36398 -7.27558 10
      vertex 0.480347 -7.6349 10
    endloop
  endfacet
  facet normal 0.968583 0.248691 0
    outer loop
      vertex -7.11279 -2.81615 30
      vertex -7.58968 -0.958798 10
      vertex -7.58968 -0.958798 30
    endloop
  endfacet
  facet normal 0.968583 0.248691 0
    outer loop
      vertex -7.58968 -0.958798 10
      vertex -7.11279 -2.81615 30
      vertex -7.11279 -2.81615 10
    endloop
  endfacet
  facet normal -0.425779 -0.904827 0
    outer loop
      vertex 2.36398 7.27558 10
      vertex 4.09907 6.45911 30
      vertex 2.36398 7.27558 30
    endloop
  endfacet
  facet normal -0.425779 -0.904827 -0
    outer loop
      vertex 4.09907 6.45911 30
      vertex 2.36398 7.27558 10
      vertex 4.09907 6.45911 10
    endloop
  endfacet
  facet normal -0.809014 -0.587789 0
    outer loop
      vertex 6.70375 3.68542 10
      vertex 5.57661 5.23678 30
      vertex 5.57661 5.23678 10
    endloop
  endfacet
  facet normal -0.809014 -0.587789 0
    outer loop
      vertex 5.57661 5.23678 30
      vertex 6.70375 3.68542 10
      vertex 6.70375 3.68542 30
    endloop
  endfacet
  facet normal 0.728968 -0.684548 0
    outer loop
      vertex -6.18898 4.49656 30
      vertex -4.87629 5.89443 10
      vertex -4.87629 5.89443 30
    endloop
  endfacet
  facet normal 0.728968 -0.684548 0
    outer loop
      vertex -4.87629 5.89443 10
      vertex -6.18898 4.49656 30
      vertex -6.18898 4.49656 10
    endloop
  endfacet
  facet normal 0.535827 0.844328 -0
    outer loop
      vertex -3.25721 -6.92193 10
      vertex -4.87629 -5.89443 30
      vertex -3.25721 -6.92193 30
    endloop
  endfacet
  facet normal 0.535827 0.844328 0
    outer loop
      vertex -4.87629 -5.89443 30
      vertex -3.25721 -6.92193 10
      vertex -4.87629 -5.89443 10
    endloop
  endfacet
  facet normal -0.637425 -0.770513 0
    outer loop
      vertex 4.09907 6.45911 10
      vertex 5.57661 5.23678 30
      vertex 4.09907 6.45911 30
    endloop
  endfacet
  facet normal -0.637425 -0.770513 -0
    outer loop
      vertex 5.57661 5.23678 30
      vertex 4.09907 6.45911 10
      vertex 5.57661 5.23678 10
    endloop
  endfacet
  facet normal -0.929778 0.368122 0
    outer loop
      vertex 6.70375 -3.68542 10
      vertex 7.40966 -1.90248 30
      vertex 7.40966 -1.90248 10
    endloop
  endfacet
  facet normal -0.929778 0.368122 0
    outer loop
      vertex 7.40966 -1.90248 30
      vertex 6.70375 -3.68542 10
      vertex 6.70375 -3.68542 30
    endloop
  endfacet
  facet normal -0.992115 0.125334 0
    outer loop
      vertex 7.40966 -1.90248 10
      vertex 7.65 0 30
      vertex 7.65 0 10
    endloop
  endfacet
  facet normal -0.992115 0.125334 0
    outer loop
      vertex 7.65 0 30
      vertex 7.40966 -1.90248 10
      vertex 7.40966 -1.90248 30
    endloop
  endfacet
  facet normal 0.0627868 0.998027 -0
    outer loop
      vertex 0.480347 -7.6349 10
      vertex -1.43347 -7.5145 30
      vertex 0.480347 -7.6349 30
    endloop
  endfacet
  facet normal 0.0627868 0.998027 0
    outer loop
      vertex -1.43347 -7.5145 30
      vertex 0.480347 -7.6349 10
      vertex -1.43347 -7.5145 10
    endloop
  endfacet
  facet normal 0 0 1
    outer loop
      vertex 7.40966 1.90248 10
      vertex 7.40966 -1.90248 10
      vertex 7.65 0 10
    endloop
  endfacet
  facet normal 0 0 1
    outer loop
      vertex 6.70375 3.68542 10
      vertex 7.40966 -1.90248 10
      vertex 7.40966 1.90248 10
    endloop
  endfacet
  facet normal 0 0 1
    outer loop
      vertex 6.70375 3.68542 10
      vertex 6.70375 -3.68542 10
      vertex 7.40966 -1.90248 10
    endloop
  endfacet
  facet normal 0 0 1
    outer loop
      vertex 5.57661 5.23678 10
      vertex 6.70375 -3.68542 10
      vertex 6.70375 3.68542 10
    endloop
  endfacet
  facet normal 0 0 1
    outer loop
      vertex 5.57661 5.23678 10
      vertex 5.57661 -5.23678 10
      vertex 6.70375 -3.68542 10
    endloop
  endfacet
  facet normal 0 0 1
    outer loop
      vertex 4.09907 6.45911 10
      vertex 5.57661 -5.23678 10
      vertex 5.57661 5.23678 10
    endloop
  endfacet
  facet normal 0 0 1
    outer loop
      vertex 4.09907 6.45911 10
      vertex 4.09907 -6.45911 10
      vertex 5.57661 -5.23678 10
    endloop
  endfacet
  facet normal 0 0 1
    outer loop
      vertex 2.36398 7.27558 10
      vertex 4.09907 -6.45911 10
      vertex 4.09907 6.45911 10
    endloop
  endfacet
  facet normal 0 0 1
    outer loop
      vertex 2.36398 7.27558 10
      vertex 2.36398 -7.27558 10
      vertex 4.09907 -6.45911 10
    endloop
  endfacet
  facet normal 0 0 1
    outer loop
      vertex 0.480347 7.6349 10
      vertex 2.36398 -7.27558 10
      vertex 2.36398 7.27558 10
    endloop
  endfacet
  facet normal 0 0 1
    outer loop
      vertex 0.480347 7.6349 10
      vertex 0.480347 -7.6349 10
      vertex 2.36398 -7.27558 10
    endloop
  endfacet
  facet normal -0 0 1
    outer loop
      vertex -1.43347 7.5145 10
      vertex 0.480347 -7.6349 10
      vertex 0.480347 7.6349 10
    endloop
  endfacet
  facet normal 0 0 1
    outer loop
      vertex -1.43347 7.5145 10
      vertex -1.43347 -7.5145 10
      vertex 0.480347 -7.6349 10
    endloop
  endfacet
  facet normal -0 0 1
    outer loop
      vertex -3.25721 6.92193 10
      vertex -1.43347 -7.5145 10
      vertex -1.43347 7.5145 10
    endloop
  endfacet
  facet normal 0 0 1
    outer loop
      vertex -3.25721 6.92193 10
      vertex -3.25721 -6.92193 10
      vertex -1.43347 -7.5145 10
    endloop
  endfacet
  facet normal -0 0 1
    outer loop
      vertex -4.87629 5.89443 10
      vertex -3.25721 -6.92193 10
      vertex -3.25721 6.92193 10
    endloop
  endfacet
  facet normal 0 0 1
    outer loop
      vertex -4.87629 5.89443 10
      vertex -4.87629 -5.89443 10
      vertex -3.25721 -6.92193 10
    endloop
  endfacet
  facet normal -0 0 1
    outer loop
      vertex -6.18898 4.49656 10
      vertex -4.87629 -5.89443 10
      vertex -4.87629 5.89443 10
    endloop
  endfacet
  facet normal 0 0 1
    outer loop
      vertex -6.18898 4.49656 10
      vertex -6.18898 -4.49656 10
      vertex -4.87629 -5.89443 10
    endloop
  endfacet
  facet normal -0 0 1
    outer loop
      vertex -7.11279 2.81615 10
      vertex -6.18898 -4.49656 10
      vertex -6.18898 4.49656 10
    endloop
  endfacet
  facet normal 0 0 1
    outer loop
      vertex -7.11279 2.81615 10
      vertex -7.11279 -2.81615 10
      vertex -6.18898 -4.49656 10
    endloop
  endfacet
  facet normal -0 0 1
    outer loop
      vertex -7.58968 0.958798 10
      vertex -7.11279 -2.81615 10
      vertex -7.11279 2.81615 10
    endloop
  endfacet
  facet normal 0 0 1
    outer loop
      vertex -7.11279 -2.81615 10
      vertex -7.58968 0.958798 10
      vertex -7.58968 -0.958798 10
    endloop
  endfacet
  facet normal -0.425779 0.904827 0
    outer loop
      vertex 4.09907 -6.45911 10
      vertex 2.36398 -7.27558 30
      vertex 4.09907 -6.45911 30
    endloop
  endfacet
  facet normal -0.425779 0.904827 0
    outer loop
      vertex 2.36398 -7.27558 30
      vertex 4.09907 -6.45911 10
      vertex 2.36398 -7.27558 10
    endloop
  endfacet
  facet normal 0.876307 0.481752 0
    outer loop
      vertex -6.18898 -4.49656 30
      vertex -7.11279 -2.81615 10
      vertex -7.11279 -2.81615 30
    endloop
  endfacet
  facet normal 0.876307 0.481752 0
    outer loop
      vertex -7.11279 -2.81615 10
      vertex -6.18898 -4.49656 30
      vertex -6.18898 -4.49656 10
    endloop
  endfacet
  facet normal 0.728968 0.684548 0
    outer loop
      vertex -4.87629 -5.89443 30
      vertex -6.18898 -4.49656 10
      vertex -6.18898 -4.49656 30
    endloop
  endfacet
  facet normal 0.728968 0.684548 0
    outer loop
      vertex -6.18898 -4.49656 10
      vertex -4.87629 -5.89443 30
      vertex -4.87629 -5.89443 10
    endloop
  endfacet
  facet normal -0.18738 -0.982287 0
    outer loop
      vertex 0.480347 7.6349 10
      vertex 2.36398 7.27558 30
      vertex 0.480347 7.6349 30
    endloop
  endfacet
  facet normal -0.18738 -0.982287 -0
    outer loop
      vertex 2.36398 7.27558 30
      vertex 0.480347 7.6349 10
      vertex 2.36398 7.27558 10
    endloop
  endfacet
  facet normal 1 -0 0
    outer loop
      vertex -7.5 -8.01959 7.5
      vertex -7.5 8.01959 0
      vertex -7.5 8.01959 7.5
    endloop
  endfacet
  facet normal 1 0 0
    outer loop
      vertex -7.5 8.01959 0
      vertex -7.5 -8.01959 7.5
      vertex -7.5 -8.01959 0
    endloop
  endfacet
  facet normal -1 0 0
    outer loop
      vertex 7.5 -8.01959 0
      vertex 7.5 8.01959 7.5
      vertex 7.5 8.01959 0
    endloop
  endfacet
  facet normal -1 -0 0
    outer loop
      vertex 7.5 8.01959 7.5
      vertex 7.5 -8.01959 0
      vertex 7.5 -8.01959 7.5
    endloop
  endfacet
  facet normal 0 0 -1
    outer loop
      vertex 5.5 -9.52628 7.5
      vertex 7.5 -8.01959 7.5
      vertex 7.36044 -8.17459 7.5
    endloop
  endfacet
  facet normal -0 0 -1
    outer loop
      vertex 7.5 -8.01959 7.5
      vertex 5.5 -9.52628 7.5
      vertex 7.5 8.01959 7.5
    endloop
  endfacet
  facet normal 0 0 -1
    outer loop
      vertex 5.5 9.52628 7.5
      vertex 7.5 8.01959 7.5
      vertex 5.5 -9.52628 7.5
    endloop
  endfacet
  facet normal 0 0 -1
    outer loop
      vertex 7.5 8.01959 7.5
      vertex 5.5 9.52628 7.5
      vertex 7.36044 8.17459 7.5
    endloop
  endfacet
  facet normal 0 0 -1
    outer loop
      vertex 3.39919 -10.4616 7.5
      vertex 5.5 9.52628 7.5
      vertex 5.5 -9.52628 7.5
    endloop
  endfacet
  facet normal 0 0 -1
    outer loop
      vertex 3.39919 -10.4616 7.5
      vertex 3.39919 10.4616 7.5
      vertex 5.5 9.52628 7.5
    endloop
  endfacet
  facet normal 0 0 -1
    outer loop
      vertex 1.14981 -10.9397 7.5
      vertex 3.39919 10.4616 7.5
      vertex 3.39919 -10.4616 7.5
    endloop
  endfacet
  facet normal 0 0 -1
    outer loop
      vertex 1.14981 -10.9397 7.5
      vertex 1.14981 10.9397 7.5
      vertex 3.39919 10.4616 7.5
    endloop
  endfacet
  facet normal 0 0 -1
    outer loop
      vertex -1.14981 -10.9397 7.5
      vertex 1.14981 10.9397 7.5
      vertex 1.14981 -10.9397 7.5
    endloop
  endfacet
  facet normal 0 0 -1
    outer loop
      vertex -1.14981 -10.9397 7.5
      vertex -1.14981 10.9397 7.5
      vertex 1.14981 10.9397 7.5
    endloop
  endfacet
  facet normal 0 0 -1
    outer loop
      vertex -3.39919 -10.4616 7.5
      vertex -1.14981 10.9397 7.5
      vertex -1.14981 -10.9397 7.5
    endloop
  endfacet
  facet normal 0 0 -1
    outer loop
      vertex -3.39919 -10.4616 7.5
      vertex -3.39919 10.4616 7.5
      vertex -1.14981 10.9397 7.5
    endloop
  endfacet
  facet normal 0 0 -1
    outer loop
      vertex -5.5 -9.52628 7.5
      vertex -3.39919 10.4616 7.5
      vertex -3.39919 -10.4616 7.5
    endloop
  endfacet
  facet normal 0 0 -1
    outer loop
      vertex -5.5 -9.52628 7.5
      vertex -5.5 9.52628 7.5
      vertex -3.39919 10.4616 7.5
    endloop
  endfacet
  facet normal 0 0 -1
    outer loop
      vertex -7.5 -8.01959 7.5
      vertex -5.5 -9.52628 7.5
      vertex -7.36044 -8.17459 7.5
    endloop
  endfacet
  facet normal 0 0 -1
    outer loop
      vertex -5.5 -9.52628 7.5
      vertex -7.5 -8.01959 7.5
      vertex -5.5 9.52628 7.5
    endloop
  endfacet
  facet normal 0 0 -1
    outer loop
      vertex -7.5 8.01959 7.5
      vertex -5.5 9.52628 7.5
      vertex -7.5 -8.01959 7.5
    endloop
  endfacet
  facet normal 0 0 -1
    outer loop
      vertex -5.5 9.52628 7.5
      vertex -7.5 8.01959 7.5
      vertex -7.36044 8.17459 7.5
    endloop
  endfacet
endsolid OpenSCAD_Model
