solid OpenSCAD_Model
  facet normal -0 0 1
    outer loop
      vertex -10.5 9.5 4.5
      vertex -7.5 1.5 4.5
      vertex -7.5 9.5 4.5
    endloop
  endfacet
  facet normal 0 0 1
    outer loop
      vertex -7.5 1.5 4.5
      vertex -10.5 9.5 4.5
      vertex -7.5 -1.5 4.5
    endloop
  endfacet
  facet normal 0 0 1
    outer loop
      vertex -10.5 -9.5 4.5
      vertex -7.5 -1.5 4.5
      vertex -10.5 9.5 4.5
    endloop
  endfacet
  facet normal 0 0 1
    outer loop
      vertex -7.5 -1.5 4.5
      vertex -10.5 -9.5 4.5
      vertex -7.5 -9.5 4.5
    endloop
  endfacet
  facet normal -0 0 1
    outer loop
      vertex -7.5 1.5 4.5
      vertex 7.5 -1.5 4.5
      vertex 7.5 1.5 4.5
    endloop
  endfacet
  facet normal 0 0 1
    outer loop
      vertex 7.5 -1.5 4.5
      vertex -7.5 1.5 4.5
      vertex -7.5 -1.5 4.5
    endloop
  endfacet
  facet normal 0 0 1
    outer loop
      vertex 7.5 1.5 4.5
      vertex 10.5 9.5 4.5
      vertex 7.5 9.5 4.5
    endloop
  endfacet
  facet normal 0 0 1
    outer loop
      vertex 10.5 9.5 4.5
      vertex 7.5 1.5 4.5
      vertex 10.5 -9.5 4.5
    endloop
  endfacet
  facet normal -0 0 1
    outer loop
      vertex 7.5 -1.5 4.5
      vertex 10.5 -9.5 4.5
      vertex 7.5 1.5 4.5
    endloop
  endfacet
  facet normal 0 0 1
    outer loop
      vertex 10.5 -9.5 4.5
      vertex 7.5 -1.5 4.5
      vertex 7.5 -9.5 4.5
    endloop
  endfacet
  facet normal 0 0 -1
    outer loop
      vertex -7.5 -1.5 1.5
      vertex 7.5 1.5 1.5
      vertex 7.5 -1.5 1.5
    endloop
  endfacet
  facet normal -0 0 -1
    outer loop
      vertex 7.5 1.5 1.5
      vertex -7.5 -1.5 1.5
      vertex -7.5 1.5 1.5
    endloop
  endfacet
  facet normal 0 1 -0
    outer loop
      vertex 7.5 1.5 1.5
      vertex -7.5 1.5 4.5
      vertex 7.5 1.5 4.5
    endloop
  endfacet
  facet normal 0 1 0
    outer loop
      vertex -7.5 1.5 4.5
      vertex 7.5 1.5 1.5
      vertex -7.5 1.5 1.5
    endloop
  endfacet
  facet normal 0 -1 0
    outer loop
      vertex -7.5 -1.5 1.5
      vertex 7.5 -1.5 4.5
      vertex -7.5 -1.5 4.5
    endloop
  endfacet
  facet normal 0 -1 -0
    outer loop
      vertex 7.5 -1.5 4.5
      vertex -7.5 -1.5 1.5
      vertex 7.5 -1.5 1.5
    endloop
  endfacet
  facet normal -0 0 1
    outer loop
      vertex -7.5 -6.5 3
      vertex 7.5 -9.5 3
      vertex 7.5 -6.5 3
    endloop
  endfacet
  facet normal 0 0 1
    outer loop
      vertex 7.5 -9.5 3
      vertex -7.5 -6.5 3
      vertex -7.5 -9.5 3
    endloop
  endfacet
  facet normal 0 0 -1
    outer loop
      vertex 10.5 -9.5 0
      vertex 7.5 -6.5 0
      vertex 10.5 9.5 0
    endloop
  endfacet
  facet normal 0 0 -1
    outer loop
      vertex 10.5 -9.5 0
      vertex -7.5 -6.5 0
      vertex 7.5 -6.5 0
    endloop
  endfacet
  facet normal -0 0 -1
    outer loop
      vertex -7.5 -6.5 0
      vertex -10.5 -9.5 0
      vertex -7.5 6.5 0
    endloop
  endfacet
  facet normal 0 0 -1
    outer loop
      vertex -10.5 -9.5 0
      vertex -7.5 -6.5 0
      vertex 10.5 -9.5 0
    endloop
  endfacet
  facet normal 0 0 -1
    outer loop
      vertex 7.5 6.5 0
      vertex 10.5 9.5 0
      vertex 7.5 -6.5 0
    endloop
  endfacet
  facet normal 0 0 -1
    outer loop
      vertex -7.5 6.5 0
      vertex 10.5 9.5 0
      vertex 7.5 6.5 0
    endloop
  endfacet
  facet normal 0 0 -1
    outer loop
      vertex -7.5 6.5 0
      vertex -10.5 9.5 0
      vertex 10.5 9.5 0
    endloop
  endfacet
  facet normal 0 0 -1
    outer loop
      vertex -10.5 9.5 0
      vertex -7.5 6.5 0
      vertex -10.5 -9.5 0
    endloop
  endfacet
  facet normal 0 1 -0
    outer loop
      vertex 7.5 -6.5 0
      vertex -7.5 -6.5 3
      vertex 7.5 -6.5 3
    endloop
  endfacet
  facet normal 0 1 0
    outer loop
      vertex -7.5 -6.5 3
      vertex 7.5 -6.5 0
      vertex -7.5 -6.5 0
    endloop
  endfacet
  facet normal 0 -1 0
    outer loop
      vertex -10.5 -9.5 4.5
      vertex -7.5 -9.5 3
      vertex -7.5 -9.5 4.5
    endloop
  endfacet
  facet normal 0 -1 -0
    outer loop
      vertex -7.5 -9.5 3
      vertex -10.5 -9.5 0
      vertex 7.5 -9.5 3
    endloop
  endfacet
  facet normal 0 -1 0
    outer loop
      vertex -10.5 -9.5 0
      vertex -7.5 -9.5 3
      vertex -10.5 -9.5 4.5
    endloop
  endfacet
  facet normal 0 -1 0
    outer loop
      vertex 7.5 -9.5 3
      vertex 10.5 -9.5 4.5
      vertex 7.5 -9.5 4.5
    endloop
  endfacet
  facet normal 0 -1 0
    outer loop
      vertex 7.5 -9.5 3
      vertex 10.5 -9.5 0
      vertex 10.5 -9.5 4.5
    endloop
  endfacet
  facet normal 0 -1 0
    outer loop
      vertex 10.5 -9.5 0
      vertex 7.5 -9.5 3
      vertex -10.5 -9.5 0
    endloop
  endfacet
  facet normal -0 0 1
    outer loop
      vertex -7.5 9.5 3
      vertex 7.5 6.5 3
      vertex 7.5 9.5 3
    endloop
  endfacet
  facet normal 0 0 1
    outer loop
      vertex 7.5 6.5 3
      vertex -7.5 9.5 3
      vertex -7.5 6.5 3
    endloop
  endfacet
  facet normal 0 1 0
    outer loop
      vertex 10.5 9.5 4.5
      vertex 7.5 9.5 3
      vertex 7.5 9.5 4.5
    endloop
  endfacet
  facet normal 0 1 0
    outer loop
      vertex 7.5 9.5 3
      vertex 10.5 9.5 0
      vertex -7.5 9.5 3
    endloop
  endfacet
  facet normal 0 1 -0
    outer loop
      vertex 10.5 9.5 0
      vertex 7.5 9.5 3
      vertex 10.5 9.5 4.5
    endloop
  endfacet
  facet normal 0 1 -0
    outer loop
      vertex -7.5 9.5 3
      vertex -10.5 9.5 4.5
      vertex -7.5 9.5 4.5
    endloop
  endfacet
  facet normal 0 1 0
    outer loop
      vertex -7.5 9.5 3
      vertex -10.5 9.5 0
      vertex -10.5 9.5 4.5
    endloop
  endfacet
  facet normal 0 1 0
    outer loop
      vertex -10.5 9.5 0
      vertex -7.5 9.5 3
      vertex 10.5 9.5 0
    endloop
  endfacet
  facet normal 0 -1 0
    outer loop
      vertex -7.5 6.5 0
      vertex 7.5 6.5 3
      vertex -7.5 6.5 3
    endloop
  endfacet
  facet normal 0 -1 -0
    outer loop
      vertex 7.5 6.5 3
      vertex -7.5 6.5 0
      vertex 7.5 6.5 0
    endloop
  endfacet
  facet normal 1 -0 0
    outer loop
      vertex 10.5 -9.5 4.5
      vertex 10.5 9.5 0
      vertex 10.5 9.5 4.5
    endloop
  endfacet
  facet normal 1 0 0
    outer loop
      vertex 10.5 9.5 0
      vertex 10.5 -9.5 4.5
      vertex 10.5 -9.5 0
    endloop
  endfacet
  facet normal -1 0 0
    outer loop
      vertex 7.5 6.5 0
      vertex 7.5 1.5 1.5
      vertex 7.5 6.5 3
    endloop
  endfacet
  facet normal -1 0 0
    outer loop
      vertex 7.5 6.5 0
      vertex 7.5 -1.5 1.5
      vertex 7.5 1.5 1.5
    endloop
  endfacet
  facet normal -1 0 0
    outer loop
      vertex 7.5 -6.5 0
      vertex 7.5 -1.5 1.5
      vertex 7.5 6.5 0
    endloop
  endfacet
  facet normal -1 0 0
    outer loop
      vertex 7.5 -6.5 3
      vertex 7.5 -1.5 1.5
      vertex 7.5 -6.5 0
    endloop
  endfacet
  facet normal -1 0 0
    outer loop
      vertex 7.5 -1.5 1.5
      vertex 7.5 -6.5 3
      vertex 7.5 -1.5 4.5
    endloop
  endfacet
  facet normal -1 0 0
    outer loop
      vertex 7.5 -9.5 4.5
      vertex 7.5 -6.5 3
      vertex 7.5 -9.5 3
    endloop
  endfacet
  facet normal -1 0 0
    outer loop
      vertex 7.5 -6.5 3
      vertex 7.5 -9.5 4.5
      vertex 7.5 -1.5 4.5
    endloop
  endfacet
  facet normal -1 0 0
    outer loop
      vertex 7.5 6.5 3
      vertex 7.5 9.5 4.5
      vertex 7.5 9.5 3
    endloop
  endfacet
  facet normal -1 0 0
    outer loop
      vertex 7.5 1.5 4.5
      vertex 7.5 6.5 3
      vertex 7.5 1.5 1.5
    endloop
  endfacet
  facet normal -1 0 0
    outer loop
      vertex 7.5 6.5 3
      vertex 7.5 1.5 4.5
      vertex 7.5 9.5 4.5
    endloop
  endfacet
  facet normal 1 0 0
    outer loop
      vertex -7.5 -1.5 4.5
      vertex -7.5 -6.5 3
      vertex -7.5 -1.5 1.5
    endloop
  endfacet
  facet normal 1 -0 0
    outer loop
      vertex -7.5 -9.5 4.5
      vertex -7.5 -6.5 3
      vertex -7.5 -1.5 4.5
    endloop
  endfacet
  facet normal 1 0 0
    outer loop
      vertex -7.5 -6.5 3
      vertex -7.5 -9.5 4.5
      vertex -7.5 -9.5 3
    endloop
  endfacet
  facet normal 1 0 0
    outer loop
      vertex -7.5 9.5 4.5
      vertex -7.5 6.5 3
      vertex -7.5 9.5 3
    endloop
  endfacet
  facet normal 1 -0 0
    outer loop
      vertex -7.5 1.5 4.5
      vertex -7.5 6.5 3
      vertex -7.5 9.5 4.5
    endloop
  endfacet
  facet normal 1 0 0
    outer loop
      vertex -7.5 1.5 1.5
      vertex -7.5 6.5 3
      vertex -7.5 1.5 4.5
    endloop
  endfacet
  facet normal 1 0 0
    outer loop
      vertex -7.5 6.5 3
      vertex -7.5 1.5 1.5
      vertex -7.5 6.5 0
    endloop
  endfacet
  facet normal 1 -0 0
    outer loop
      vertex -7.5 -1.5 1.5
      vertex -7.5 6.5 0
      vertex -7.5 1.5 1.5
    endloop
  endfacet
  facet normal 1 0 0
    outer loop
      vertex -7.5 -1.5 1.5
      vertex -7.5 -6.5 0
      vertex -7.5 6.5 0
    endloop
  endfacet
  facet normal 1 0 0
    outer loop
      vertex -7.5 -6.5 0
      vertex -7.5 -1.5 1.5
      vertex -7.5 -6.5 3
    endloop
  endfacet
  facet normal -1 0 0
    outer loop
      vertex -10.5 -9.5 0
      vertex -10.5 9.5 4.5
      vertex -10.5 9.5 0
    endloop
  endfacet
  facet normal -1 -0 0
    outer loop
      vertex -10.5 9.5 4.5
      vertex -10.5 -9.5 0
      vertex -10.5 -9.5 4.5
    endloop
  endfacet
endsolid OpenSCAD_Model
